<mxfile host="Electron" agent="Mozilla/5.0 (Windows NT 10.0; Win64; x64) AppleWebKit/537.36 (KHTML, like Gecko) draw.io/24.7.8 Chrome/128.0.6613.36 Electron/32.0.1 Safari/537.36" version="24.7.8" pages="3">
  <diagram id="arH31tbT1CF_Zj58d_gB" name="Option1-Athena">
    <mxGraphModel dx="970" dy="587" grid="1" gridSize="10" guides="1" tooltips="1" connect="1" arrows="1" fold="1" page="1" pageScale="1" pageWidth="850" pageHeight="1100" math="0" shadow="0">
      <root>
        <mxCell id="0" />
        <mxCell id="1" parent="0" />
        <mxCell id="aO1q9SQLotEZUZnHG0xy-10" value="" style="rounded=0;whiteSpace=wrap;html=1;" parent="1" vertex="1">
          <mxGeometry x="10" y="140" width="170" height="550" as="geometry" />
        </mxCell>
        <mxCell id="aO1q9SQLotEZUZnHG0xy-3" value="" style="shape=image;aspect=fixed;image=data:image/jpeg,/9j/4AAQSkZJRgABAQAAAQABAAD/2wCEAAMDAwMDAwQEBAQFBQUFBQcHBgYHBwsICQgJCAsRCwwLCwwLEQ8SDw4PEg8bFRMTFRsfGhkaHyYiIiYwLTA+PlQBAwMDAwMDBAQEBAUFBQUFBwcGBgcHCwgJCAkICxELDAsLDAsRDxIPDg8SDxsVExMVGx8aGRofJiIiJjAtMD4+VP/CABEIAMMA7AMBIgACEQEDEQH/xAAdAAACAgMBAQEAAAAAAAAAAAAAAQQFAgMGBwgJ/9oACAEBAAAAAP1PSGZJ4iZkkmsgeDTBpDGFFTapV1bNJrIDFpgCAyjcNXTJEjbOv9iBg8QYskga8+jzpsjbte22AyAxBgxAc9zdjN3yJGWa2SBZMMQYs1iM4bbYSpO/ewHjqN+TwayEJDjchaTJUk5ep29DfYrTFjzZ2LTBiCtp58+B8eeNVuqLD6n6s+m1phQ7KcDECCsgT53KfJvklNrjQOv+jvrUIsCJ0OYxZJRqbCXPleU/FvqUiFpfE8j+oo9MGBYWQwa53j7G4sp8nyf4UNd1VcxC6f8AU5ZYQq/O7GDoOE2W9zPsN/k/wp2FZ2urzfTM/TdZEKvizrPaC8yi7La6n2G/yb4el9kTeb5ev/UoZDgVNPH7a7VNwC2WtzYz5Hk/wt6jPnQN/mXNfqYssYVfWUsHP0idyvIp2dzZTpflHxB6t5h6lTeWet+b/psPXBgVNNGfSdny/IInXFnOn+V/CnV9rXzsPINX6lDjQYFPU6nZ+iU/AI321rPneY/CqfosXyWD0n6lGuHCrqaBi7P0ReaRAsLexm0vx75fhpiQNv0l9l6o0SDVVWgd53eVL5+PZZWk6XI1cpR1vT9nN1x40KvqoQjur8KLj4ZKn2UziK9yd1JVS/a4saBWwMBdJ2jaSgQNOdLLylZ7d0bLBRoUW2i4Sru1AEBkqrktsrdtZvvYNQX0p4gxZJA2GiiqIuci5vcgbDEGDEBkGIa8NuYgbDEGJpA2GIDYkDYYgw//xAAcAQACAgMBAQAAAAAAAAAAAAAABAMFAQIGBwj/2gAKAgIQAxAAAAAAANtGU4pYWgAAAAAAnVtqGFmKdVxdwAAAAAC1oYmYGYpcba7hjJkAAA2jfq1XOz8xtqON/nOy5fs51td4WAAM4nUzrKr7H80Zn1sEL/x73naNpFV/XcN47rmV3ULNyr94+SEbfSzzZ+C/TBhlMys2ZtKOwqELZC0cqvbvlWi6yJ+0j8N+kTDKdjUbxUfT3PNtopWSFs1We1fLlZe6PzzeI/SGdXEbGmnTpuknUsqaJmut8w+6/JxjWxrOt8Q+jpl3K+wp946boVLG75lhNSxTsZEnarOFnq+9ZUeq51I5aHq9JQkhkicrgimxvFLLFJCs1kXc13AAAwwnMvFOs6ZAAAAAAAAAAAAAP//EAE4QAAEDAgIECQYMAgUNAAAAAAEAAgMEEQUSBiExURATFCAiMkFxgTZCYXKRshUwMzRAUmJ0obHB0YLSBxcjJFA1Q0RTY2Rzg5LC4eLw/9oACAEBAAE/Af8AB5a+CPUOkfQnYlKeqxo/Fctqt49ibXTDaGlR1cb9R6J+kSSNibmcbBVFXJUXHVZu/dBiDEGIRrIo3ui1bRuTXBwuPopIAVTOaiT7I6oTWprE1qDVlWVZU27Cuz6JXy2aIx523uTWprEGoNQag1ZVlWRN1fRJncbM53ZfV4JrE1qa1BqDVZWCsrBWHBqWYLjGq4Px0rskbj6ExqaE0IBWTnNjbmeQ0bybKXHMFh+UxGkb/wA5qdpZo00/5Tp/aU3SnRx+zFKXxfb81BiWHVVuIq6eX1JWu/LmkLW3YmS5tR2/G1XyXeQmhNCaFXVsGHUc1VOSI4m3NtvcO9YppzjFY5zaZ3I4tzOv4u/ZVE89S8unlfK7e9xcfx4XIgKix7GcMtyWunjA83Nmb/0m4WienbsWq48Pr42sqJL8VKzqvI12I7Dw2RCcoZc4sdo+Mqeq3vTQmhBY6/D2YXOK+/Jn5WSEdmY2B8Cq7QvEo28fh7mV9O7Wx8bhmt3KppqmkdaoglhP22Fv5rM07CEUVnZe2YX3Ki0fx3E7clw6ocD57m8Wz2vssA0WodF66kq8XrIjXSPEdLTs1gOk6N95Pp2DmOCcFcsObcmkOAI7fiZJY4hd7rI12bqM8SjI6TrJoTQgtNvJqr9eH3wqPEK7D356WolhPblOo94UGnuNxjLMynqB9tlvdTtL8Mm+c6O0cns/VqdpHooTc6LU/tb/ACo6UaNR/J6K0niW/wAq/rBlpx/csHoKfwv7uVV2nWk9YCOWcQ09kLQz8dqwKSSbSTC5JHue91fBdzjcnpbzzCnJ6pndEjcfiKqt4o5I7F3adyu57ruJJ3piYE0Jo4NNvJqr9eH3xwlYnhdRhb445nMJkZm6PsUeHVc9HPWMYOJgNnm+vwHinIrR7ygwn79B73MKcnKm67u7n1tTxLcrT0nfgOBu1Rpqam8Gm3k1V+vD744MJw6mxIyxyVPFS6uKb9ZYhhlZhrrTM6N9Ug6pWmPzuk/4B95YX5J4r6zvyasNwXEMXd/d2Wjvrmd1fDf4LFcI5BWOp452TAAXfssT2d4WAwxR49hWZ/S5bDq/i5rk9Mk4p17XQrYe0lvemua4XBBHMJAFzsCllM0jnnt4G7VGmpqHBpt5NVfrw++FBDLUzxwxC75HWaL2VXQ1dC608RZudtae4qg0imgbxNW3lEJ1G/WA8dvisbnbjldTsoGyTFkGsZbdt+1YLWYbRYdW02IHL/bHPC5ty7UNVvBYppXVVDDFStFNT7NXWI9J7B6AqHBcaxjXBEQw7HvORru7etHxbSLCh/v8PvcwpycnqRRyviddhsqWrbPqOp+7hrn5KZ32tXC1MTU1N4NNvJqr9eH3wmlzXBzSQRsIWH6QVcpFLUQctD9VrdP9j4rG8DoaeFs8LxA572tbE46jmNtXd2qtfHotQNipY888x6U7hquP/tQWJU9PjmDnFWxmCaOMk5tjw3s/lKwjBcKiom1zY/hCXJmy3Gp31QDqB71jGk2LVpfBrpYxqdE24d/Edq0e8oMJ+/Qe9zCnJykT+BpLXAg2IVNMJog/28GJnoRj0nhCYUxNTUFpt5NVfrw++FTsjlnjZLJxbHOAc/6oUmLYbg8ZgwuNsj/OmdrH/t+Se+sxKp18ZUTP8T/4CiqzRM+DccjDonMDmO+U1bjZYlLiWkET+RQnkVO7K1l7OeR22/RUdZW4dOX07nxvGpwtt9DgU6twfSCC2Jx8kqGN1TN/T9isBigjx7Crvu7l0Nh/FzCnJykT+HDX2kczeL8GJjoRn7R5jCoymlNKC028mqv14ffHBhGF/CckmedsMUQBedV7ei/5qTGcOwxnJsLiaSSA6Z3b+rlpj8+g+7/9xWBVElLo7iE8ds8Upc2/c1MxDBdIAGVbRS1WwSdh/i/QrGaGfDKx1NJMJLAOBbudvG9aP+UOE/fofe5jk4p6eU48NEbVUfp1cFczPTu+zr5jCmFNKaU0rTbyZq/Xh98cFl5ze8LSuogqK2AwyMkAg1lpvtJKw+tpYtHcSp3yhssh6DO117fsnJy0f8ocJ+/Q+9zCU4p5T3I8NF86i7+C1wpojDK5ns7uYxyY5NKaVi2HRYvh81HI5zWyW6TdoINwsS0NxygJLIeVR/Xi2+Ldqka6F2SRrmO+q4ZT+PAUU8gbTZUtFW4g/JR001Qf9mwuHt2LRn+j7EYq2mr8SkEHEStkZAw5nEt2ZjsHhwXRKcU5ye5OPMw5t6i/1Wnhq6bj2auuNnMaUxya5NKBQcpIYKhuWWNjxucA781Lo1o/P1sOpr+hgb+SfoToy/8A0K3dI8fqpNEtEKZ8TZKQZpXWY0vkde3iqPANGmxxzU2HUmVzQWP4sG4Pb0lE+C74o7AxWzNGq1xcK6ui5FycU9ye7m4fDxcWY7X/AJcypomT9IdF+9S080PWbq39nC1yY5NcsyxmWSMsfynJGyF5dG2oEDz9sE9a246k+aaSHE61lZUt5PZ0LL2aAImvs5vpvrU1a8R1VQa17KuKctips/RNj0GcX52cdqfjUuHSvgmHGMpZHPqpTrLYX/Jkbzr/AAUMMxrcKkqZZePdT1T3tzmwJynLbcL2WH1DXUcYnxB9IIKOnMAbJkuDHfjPt69VlR19U+MF8j2RTR0XK6wHpMzRD2X7Xdi5fiFzKZ2tm5Vk4s1Wrr24viQ3d27e1F2solFyc5Ocib8ykonPIfILN7G7+e+lgk2xhHDoDszDxXwYz/WOQw9rf84fYjeN5adoQenNiltnY19jcZgDZWYQ4ZR0turaskRkEhYwvAsHWFx4ohhvdo6Wo6tqOUkG2sdvenRQOyXjYcnUu0dHu3LLGGluRtiLEW2riIy7jhEzOBbNlGa3ei5F6c9dOR2VouUcNcR8pr7kcNn+sxfB1RvZ7U3DD50nsCipIIdYbc7z8ZUUwmF9jt6c2SE2eLIPQes6zrMsyY10h9G9AW1KSAP1jUU6kn7C1NoHnrv9ijhZCLNH0J7GvFnC4UlA3bGbegp1PUR+ZfuWa21cYml7+qCVHSuOuTV6EGhosPpRaDtC4qMeY32f4f8A/8QAJRABAAIBAwQCAwEBAAAAAAAAAQARIRAxQSBRYXGBkaHB8LHR/9oACAEBAAE/EMVCs64hUamMTFTExpiYuNRqYrTGhUamLjWmNCoVGrnEOgjpxElEuNv3NjHzagn/ADxr8bUUBW77fcu4zjoI6PQQjOIdBGLax+fBEg3MF38rmXNVMEvNSUfJfqA9icdBHR6CEZiuYc79BGCtBusuRZj/AGPllvE2MSk2nghntN0zjwtncgiE6Co15mL5jXnoIR3lNQHPSm+MvV/2bOJtTDtPDo+Gb9p6Ri+HHQDEZTcR6AYDEzAK5gFO+rKnc9TwMCVViY7qeGeGBARuiSMsWiiJcMOeyGQNkxfMQ89AHmAeYhfM4hz0OPuKokGjEHGIcB2jwJ3ED5ZurG4onwLKA/G3+Exfx39cQDjsJfSjg2dEGJPDLW2mYSwn4vSQjvLagudWJsdhK6gYgVcTMeta4A5U0QMK7VqPLz8IqSbtXymNBgCKzK5gtF96jScOdfcQxMDAOs/jFEw6OYh0gjcSw/cd+gWCxcziGrDYTsTAMNEpjGIVr4OTA3MxNAK8rU/DKhA0n5sEQNr0joYWtEXAXYBtfgzHRsN8okYnuDsYKpDVg1Es1ihG6myUB1IRnENKyL7HL6Jepq4/4kphHwVobE2OnK/sNiv8Awfyvlv2CZVJ3Rz+2fQAmVsqcv8A3jXdvRf4T3bw9+M/ziyoHXV3sXUhn7QXLPVvnUhGViBhhNQcbh/2xbaN02wyipsTASsQ65XCwt4JU4TWoZUZDZI/IBJLYvuBS5tm1n9rslSoEMMEsF3itAgRMysRzUFv+SVBAYWWgSpTUOmVdGBQIndzvXYbm/Xpdc3fh8M/o98UNFmzgofHJ+IRxfAKDLBYNVorPeKlQIkDAwVaFJiJaQ8MQE8cjZAgRMxelAq9gnNYwdg2NGQozGhmJitOQpTGUXvlh+9OLI8OJhvxgvuYHxC42BYc1eNBALsuUdFOeYBaigj1SiAdXLep2xv2CojW4L7DqVKRxmdKJZqvw+yGVhGeD5IVHeVgaUH07w0pcYRmJTEriYrTkqFhRSJsiRrYqkqPI4PP2hsXxrAnche+EUbuNvdvz8ITYcLbE5cj+mOwMAU0204O92Ie2fi09L1gmH9GExoVFRGEdylMrokZFj2ZyOcDskajUuX+iGm7SW04RYIrNOWG5p3Zux5pKzh720r6jJ3Bbx/gfAQmytYBcbxpMJkiqYIQS3c6HHCLXK3hTfBPpi26Ga3RzLWZU+NO9N9SOOPDFMh0Iqe1T2aN4w/ZDoBmxNqPDryFzDdDXwB3UozSZRXSl5PLjRpExQiyzcIkVgJBfCwxdtLKjcOx3Ex/rw6FoLGlm0I3lH7Gi190H4h0HfxNibE2or0SbQwjsM/DAAhoyIgpzTE1RsvBJX2uDFaP5/ZquJv6mkydCC/Bf6NEIJYjcdBgyu62nxPiCjtNq4TNmLjEBmjKKU2d6SUPHbLTy4Pq4tG91/RRhnbMwlsw2wHdamRF7APe18sMxgk/vhni0vxHxj8Snjmb2NB2fE+Ieop1wj5cEfUrEG08r7nJERRERpHSpQ6G1Layy/lmSXBPhn1aKLfbrH3WPXHK7anOxbgWDl2I4DaSgsCFlqmCOmNVtkYgjoKO8pvLqCqsqVNotLWb1wiTFQ5iCuD0fcQz+HMWQ3uVVvKazDxmEn8LeEIgiU4xQf1Tpe+nm+B24gvg2DB8rCXfmxInJqKi2240fCmLpLzg1YfwxDzFEIyQ8r7gVHO4CobTlvxllh3UqoFNqq5gtcqlWSedmPfX01WVccsWUMrz4hGcQ50SyNLdeTD+Jvj12/2NlgfBOcfhFiNUYTzNkdZVHJd0wQFFZRVys94oaZLE8G4Ivc0LQ0Nh7hLVCCCCw3A+Z3n+ww8z8JWg1AaFVSclQ2MExHYUup5ZVzNzMMlJwQjQxLHCD2T5SHOHyf1G1V6/Yxw+Q7AhHecQ6CMdpVjSY4Phl5q/D6ZXWZ5YB5lF3lYyarZvAEBQSyR/ExTkHtIrYB2Nv2zFXe7uvt0eghGcQ6COnESl7CRSpfsJvyPfOXdWHziexEAynBKpKdm8KgAcdBHR6CEZTUBz0BEZTiU10bCPsuCLAfWUGxEZTXQDEZTcR6AYDEzOIdBHTjp5jGcdBHR6CEZ//8QAOREAAgEDAgMEBQoHAQAAAAAAAQIDAAQREjEFIUEQIjJhBhMUIFEVMDVCcXJ0gbGyIzRAUmKRodH/2gAIAQIBAT8A9xEdzhVJoWU+MnA/Ont5k3GR5fOQQmZ8bKNzQKRDSgwBTS0ZakVX5jf5uLEMIHU8zTyZ60XJ61rNaqJyaAJrBG499BqdR51I29YaR1VVLMxAUDck1Z+g19Moa5njgyPCBrYfoKT0BsgO/dzE+QAqT0BtCP4d5Kv3lDf+VxP0S4hw+J5kZJ40BLFeTADrg0DStUkeBqXb3QCTgUkMikMRipDvXDohccRtItTJrnjXUu4ywGRQHpDactNvfIOQYkwyfnutfKXEl5NwifP+MsZH618ocVbwcJcffnRf0zV9Bxu9tLj2iWG2hEMhZIsu7ADOCzcgOxTUZBGDtTLpYjtjRpHCruait0gTlzJ3NTGn3rg30xYfiov3Cp547aJpJM6VxnAzTXmu6s0hkVoplkJI5+EcqivgDdmYoiQy6QduWAaup4peHzsjZD28hHLHIqe2PpU0cjPlVJHbw+MYZyPIU21TU+9cG+mOH/iov3CryW8gb1kSRyRBe+pOlh5gnlQmsHlhubKJvaJGdVjPdTOO8T9nlXrbBDJdzxSNMZtLQnmqOB06Uxu3sbxp1iRTA5RE5kYU7ntj6VCNqntkmXbDdDRBUkHcVY/y6/aeyUVIK4N9MWH4qL9wriMFuyia6kf1MY5xjwk+YFSOb6e3t3tfUQMrmI7SAoNxjw1HMbUXNv7LrtYpNDFeZHIHLDrvvXs8UXDrl4JXMUlu7Iuche6duwVGNqhHZfKBPkfWUGuHyjDRnfcdkigipF3qwlS14jaTSZ0RTxu2BnkrZNWt9ZXyB7eeOUeR/UbiprZZLmCcsQYg4A+OqobZIZJ3Uk+uk1ny5YrjHErCys51mnjV2hdVTdiWGBgCgKQVEu1IMChvV+QZgPgopHaNgynBFQ3UUo3APwo8xUiZp4zUdk7IkiyBc7H4HUBio340gxBfT520iRhsOnx3qV+ITp3+IXMpHiy7sD3ivIflTcJkDkesTZevUilQmkjqNAAOyWVIV1MakcyOWPXtWaVPC7Cvarj+81FIk6DmA3UU0bUYz8TQjIIIJFO+g4BOetRvE25CmnuYkXCd40t5cL9Yf6o3twR4gPsFMzOcsST73PoaS6lXc6h50LxDun/ae5ZhgDT/AE//xAA9EQACAQMDAQUFAwgLAAAAAAABAgMABBEFITESBhBBYXETFCIyUSB0sgcwNkJigaGxFRcjQENScnOR0eH/2gAIAQMBAT8A+xJJHEMuwUedHUrbw6j6LUd5BJwcev5y7uRbR55Y/KKxLO/W5yTSQClgAqFmTYnI/NzE3FwzeA2X0FRxcUsWBQj8qKClGBRdR40GB4P25SVjYjwFRR+VFo4YmkdgiIpZmPAA3JNaj+VfSbeRksLWW76Tj2jH2SH02Jr+tjU3b4NPtlHmzNVv+VC+JHtNPgYfsuV/nmtI7c6XqkyQSI9tK5AUNupJ4GRXSDTqBuKimyelufA/ZJCjJOBUtzE6sqnJNRLxWuTm00PUZwiSGK0mfocZVulScEfQ0D2Ovz1lrzTJDyoQXMQ9OHFR6PoTbx9orUj9uCZD+E1Dpmhp8+uxN/tW8rfzC1pdzoFheWxtYZ7uYzIFknwiIScZVEJJPc42qXY5qNutAe+WVIY2d+BU11LcyZY4XwUVBwKiFdqf0a1f7hcfgNWttNeTpBF0l3z0gsFBI8MmodNMdjqMlxG8c9s0IUHb5yc5H7qGnFVsRAryPPB1sOd8kVYxPFqFsjjDLcxgjnhh3EZqQc1BNGiBWYA5oEEZHdq02WSIcAdRpeat+BUVdqf0a1f7hcfgNabBpt0DDcSywzMwEcgXqT0IG9e76tFDdWWqXCe6QLG8ko/tJMZyqg87+fFRxam4hsoJoktxbhknAId4idsjnx4FW4tF1CySBpXK3EfW77ZPUOF7ialPNXJ2q1vJbZucp4rSOHVWHBGRWp597f0X+VDmrdtqibiu1Bz2a1f7hcfgNaRdXkTmCxhi95mOFmPzqoG+Cdh5moIk0y1u7yK+F1dRNGs6jLQsJScq2fn45o2y3ful176Y7yeLrAc9KncjCHgeQqG4mm1KzWeNRKlxGHbGGb4hz3OdqlNTt3aW5a26f8rEVq0PxLKP9J7oXwRULitYt5r/AEXULWEAyT2k0aAnA6mUgVf6TqelSmO8tZoGB/XXAPoeDVvePFZ3NqEBW4aJifp7PP8A3XvclyltGwAFvF7MY+mc712e0nUr+9tngtpHRJUZnIwoCnJyTRNSOMVNIACakbqPdpSkW7H6uakjWVGRhkEVc2U1uScdS/UUCQahlqOXOKm1eJZJYXhZ+jlTjdeksTv6YqVey0rE3Ol2nScHrMKNyTjOBkHYk/QVAukWkp6dIsoRk+zAiRW2RX3YgAHeou0luYgTC43fACn5VOKaSpJed6mlzXNQwSTuFQZPj5VDEsMaoOAO97aCT5o1P7qFjaj/AAxUsUls/BK52NJIh+LpXJ5OOaDrv8K7nJ25JGM0XUg5UHPORUcQmG6jpHH/AJUsU67BS3pSWc8x+P4FptNtG/VP/NLptopz0k+ppI0jXpRQo8vtEAjBFPYQOcqCh8q/o9wdpf4VHZKhy7Fv4CgABgf3b//Z;" parent="1" vertex="1">
          <mxGeometry x="16.334999999999994" y="333" width="157.33" height="130" as="geometry" />
        </mxCell>
        <mxCell id="aO1q9SQLotEZUZnHG0xy-4" value="S3 bucket" style="sketch=0;points=[[0,0,0],[0.25,0,0],[0.5,0,0],[0.75,0,0],[1,0,0],[0,1,0],[0.25,1,0],[0.5,1,0],[0.75,1,0],[1,1,0],[0,0.25,0],[0,0.5,0],[0,0.75,0],[1,0.25,0],[1,0.5,0],[1,0.75,0]];outlineConnect=0;fontColor=#232F3E;fillColor=#7AA116;strokeColor=#ffffff;dashed=0;verticalLabelPosition=bottom;verticalAlign=top;align=center;html=1;fontSize=12;fontStyle=0;aspect=fixed;shape=mxgraph.aws4.resourceIcon;resIcon=mxgraph.aws4.s3;" parent="1" vertex="1">
          <mxGeometry x="363.5" y="333" width="78" height="78" as="geometry" />
        </mxCell>
        <mxCell id="aO1q9SQLotEZUZnHG0xy-5" value="Payor websites" style="sketch=0;pointerEvents=1;shadow=0;dashed=0;html=1;strokeColor=none;fillColor=#505050;labelPosition=center;verticalLabelPosition=bottom;verticalAlign=top;outlineConnect=0;align=center;shape=mxgraph.office.concepts.website;" parent="1" vertex="1">
          <mxGeometry x="65.5" y="533" width="59" height="49" as="geometry" />
        </mxCell>
        <mxCell id="aO1q9SQLotEZUZnHG0xy-6" value="On-premise SQL database" style="sketch=0;pointerEvents=1;shadow=0;dashed=0;html=1;strokeColor=none;fillColor=#505050;labelPosition=center;verticalLabelPosition=bottom;verticalAlign=top;outlineConnect=0;align=center;shape=mxgraph.office.servers.sql_server;" parent="1" vertex="1">
          <mxGeometry x="73.5" y="243" width="43" height="56" as="geometry" />
        </mxCell>
        <mxCell id="aO1q9SQLotEZUZnHG0xy-7" value="&lt;font style=&quot;font-size: 11px;&quot;&gt;Auto download&amp;nbsp;&lt;/font&gt;&lt;div style=&quot;font-size: 11px;&quot;&gt;&lt;font style=&quot;font-size: 11px;&quot;&gt;using API if possible&lt;/font&gt;&lt;/div&gt;" style="aspect=fixed;sketch=0;html=1;dashed=0;whitespace=wrap;verticalLabelPosition=bottom;verticalAlign=top;fillColor=#2875E2;strokeColor=#ffffff;points=[[0.005,0.63,0],[0.1,0.2,0],[0.9,0.2,0],[0.5,0,0],[0.995,0.63,0],[0.72,0.99,0],[0.5,1,0],[0.28,0.99,0]];shape=mxgraph.kubernetes.icon2;kubernetesLabel=1;prIcon=api" parent="1" vertex="1">
          <mxGeometry x="206.5" y="463" width="50" height="48" as="geometry" />
        </mxCell>
        <mxCell id="aO1q9SQLotEZUZnHG0xy-8" value="" style="endArrow=classic;html=1;rounded=0;entryX=0.005;entryY=0.63;entryDx=0;entryDy=0;entryPerimeter=0;" parent="1" target="aO1q9SQLotEZUZnHG0xy-7" edge="1">
          <mxGeometry width="50" height="50" relative="1" as="geometry">
            <mxPoint x="126.5" y="540" as="sourcePoint" />
            <mxPoint x="186.5" y="520" as="targetPoint" />
          </mxGeometry>
        </mxCell>
        <mxCell id="hEeAfSiznl8hPSDihtgW-5" value="Payor info" style="edgeLabel;html=1;align=center;verticalAlign=middle;resizable=0;points=[];" parent="aO1q9SQLotEZUZnHG0xy-8" vertex="1" connectable="0">
          <mxGeometry x="-0.2414" y="-3" relative="1" as="geometry">
            <mxPoint as="offset" />
          </mxGeometry>
        </mxCell>
        <mxCell id="aO1q9SQLotEZUZnHG0xy-9" value="" style="endArrow=classic;html=1;rounded=0;exitX=0.9;exitY=0.2;exitDx=0;exitDy=0;exitPerimeter=0;entryX=0;entryY=1;entryDx=0;entryDy=0;entryPerimeter=0;" parent="1" source="aO1q9SQLotEZUZnHG0xy-7" target="aO1q9SQLotEZUZnHG0xy-4" edge="1">
          <mxGeometry width="50" height="50" relative="1" as="geometry">
            <mxPoint x="226.5" y="490" as="sourcePoint" />
            <mxPoint x="356.5" y="410" as="targetPoint" />
          </mxGeometry>
        </mxCell>
        <mxCell id="aO1q9SQLotEZUZnHG0xy-12" value="Source systems" style="text;strokeColor=none;align=center;fillColor=none;html=1;verticalAlign=middle;whiteSpace=wrap;rounded=0;" parent="1" vertex="1">
          <mxGeometry x="13.5" y="140" width="163" height="30" as="geometry" />
        </mxCell>
        <mxCell id="aO1q9SQLotEZUZnHG0xy-13" value="AWS Glue&lt;div&gt;(ETL)&lt;/div&gt;" style="outlineConnect=0;dashed=0;verticalLabelPosition=bottom;verticalAlign=top;align=center;html=1;shape=mxgraph.aws3.glue;fillColor=#F58534;gradientColor=none;" parent="1" vertex="1">
          <mxGeometry x="216.5" y="243" width="82.5" height="110" as="geometry" />
        </mxCell>
        <mxCell id="aO1q9SQLotEZUZnHG0xy-14" value="" style="endArrow=classic;html=1;rounded=0;exitX=1;exitY=0.5;exitDx=0;exitDy=0;exitPerimeter=0;" parent="1" source="aO1q9SQLotEZUZnHG0xy-13" target="aO1q9SQLotEZUZnHG0xy-4" edge="1">
          <mxGeometry width="50" height="50" relative="1" as="geometry">
            <mxPoint x="416.5" y="440" as="sourcePoint" />
            <mxPoint x="566.5" y="320" as="targetPoint" />
          </mxGeometry>
        </mxCell>
        <mxCell id="aO1q9SQLotEZUZnHG0xy-15" value="" style="endArrow=classic;html=1;rounded=0;entryX=0;entryY=0.5;entryDx=0;entryDy=0;entryPerimeter=0;" parent="1" source="aO1q9SQLotEZUZnHG0xy-6" target="aO1q9SQLotEZUZnHG0xy-13" edge="1">
          <mxGeometry width="50" height="50" relative="1" as="geometry">
            <mxPoint x="106.5" y="270" as="sourcePoint" />
            <mxPoint x="156.5" y="220" as="targetPoint" />
          </mxGeometry>
        </mxCell>
        <mxCell id="aO1q9SQLotEZUZnHG0xy-16" value="" style="endArrow=classic;html=1;rounded=0;entryX=0;entryY=0.5;entryDx=0;entryDy=0;entryPerimeter=0;" parent="1" edge="1">
          <mxGeometry width="50" height="50" relative="1" as="geometry">
            <mxPoint x="116.5" y="380" as="sourcePoint" />
            <mxPoint x="226.5" y="308" as="targetPoint" />
          </mxGeometry>
        </mxCell>
        <mxCell id="hEeAfSiznl8hPSDihtgW-1" value="AWS Athena" style="outlineConnect=0;dashed=0;verticalLabelPosition=bottom;verticalAlign=top;align=center;html=1;shape=mxgraph.aws3.athena;fillColor=#F58534;gradientColor=none;" parent="1" vertex="1">
          <mxGeometry x="556.5" y="333.75" width="76.5" height="76.5" as="geometry" />
        </mxCell>
        <mxCell id="hEeAfSiznl8hPSDihtgW-2" value="Users" style="sketch=0;outlineConnect=0;fontColor=#232F3E;gradientColor=none;strokeColor=#232F3E;fillColor=#ffffff;dashed=0;verticalLabelPosition=bottom;verticalAlign=top;align=center;html=1;fontSize=12;fontStyle=0;aspect=fixed;shape=mxgraph.aws4.resourceIcon;resIcon=mxgraph.aws4.users;" parent="1" vertex="1">
          <mxGeometry x="766.5" y="342" width="60" height="60" as="geometry" />
        </mxCell>
        <mxCell id="hEeAfSiznl8hPSDihtgW-3" value="" style="endArrow=classic;html=1;rounded=0;exitX=0;exitY=0.5;exitDx=0;exitDy=0;exitPerimeter=0;" parent="1" source="hEeAfSiznl8hPSDihtgW-1" target="aO1q9SQLotEZUZnHG0xy-4" edge="1">
          <mxGeometry width="50" height="50" relative="1" as="geometry">
            <mxPoint x="441.5" y="380" as="sourcePoint" />
            <mxPoint x="505.5" y="426" as="targetPoint" />
            <Array as="points" />
          </mxGeometry>
        </mxCell>
        <mxCell id="zGC5hMrO_WNcfAONeZhx-4" value="Queries" style="edgeLabel;html=1;align=center;verticalAlign=middle;resizable=0;points=[];" parent="hEeAfSiznl8hPSDihtgW-3" vertex="1" connectable="0">
          <mxGeometry x="-0.1034" y="3" relative="1" as="geometry">
            <mxPoint as="offset" />
          </mxGeometry>
        </mxCell>
        <mxCell id="hEeAfSiznl8hPSDihtgW-4" value="" style="endArrow=classic;html=1;rounded=0;" parent="1" source="hEeAfSiznl8hPSDihtgW-2" edge="1">
          <mxGeometry width="50" height="50" relative="1" as="geometry">
            <mxPoint x="766.5" y="365" as="sourcePoint" />
            <mxPoint x="636.5" y="370" as="targetPoint" />
          </mxGeometry>
        </mxCell>
        <mxCell id="zGC5hMrO_WNcfAONeZhx-1" value="Queries" style="edgeLabel;html=1;align=center;verticalAlign=middle;resizable=0;points=[];" parent="hEeAfSiznl8hPSDihtgW-4" vertex="1" connectable="0">
          <mxGeometry x="0.347" relative="1" as="geometry">
            <mxPoint as="offset" />
          </mxGeometry>
        </mxCell>
        <mxCell id="hEeAfSiznl8hPSDihtgW-6" value="&lt;span style=&quot;text-wrap: nowrap;&quot;&gt;EMR Data (Athena)&lt;/span&gt;" style="text;strokeColor=none;align=center;fillColor=none;html=1;verticalAlign=middle;whiteSpace=wrap;rounded=0;" parent="1" vertex="1">
          <mxGeometry x="10" y="440" width="163" height="30" as="geometry" />
        </mxCell>
        <mxCell id="hEeAfSiznl8hPSDihtgW-7" value="" style="image;aspect=fixed;html=1;points=[];align=center;fontSize=12;image=img/lib/azure2/identity/Users.svg;" parent="1" vertex="1">
          <mxGeometry x="266.5" y="600" width="42.97" height="47" as="geometry" />
        </mxCell>
        <mxCell id="hEeAfSiznl8hPSDihtgW-8" value="" style="endArrow=classic;html=1;rounded=0;entryX=0.012;entryY=0.364;entryDx=0;entryDy=0;entryPerimeter=0;dashed=1;" parent="1" target="hEeAfSiznl8hPSDihtgW-7" edge="1">
          <mxGeometry width="50" height="50" relative="1" as="geometry">
            <mxPoint x="136.5" y="550" as="sourcePoint" />
            <mxPoint x="216.5" y="503" as="targetPoint" />
          </mxGeometry>
        </mxCell>
        <mxCell id="hEeAfSiznl8hPSDihtgW-9" value="Payor info&lt;div&gt;(manual download)&lt;/div&gt;" style="edgeLabel;html=1;align=center;verticalAlign=middle;resizable=0;points=[];" parent="hEeAfSiznl8hPSDihtgW-8" vertex="1" connectable="0">
          <mxGeometry x="-0.2414" y="-3" relative="1" as="geometry">
            <mxPoint as="offset" />
          </mxGeometry>
        </mxCell>
        <mxCell id="hEeAfSiznl8hPSDihtgW-10" value="" style="endArrow=classic;html=1;rounded=0;entryX=0.5;entryY=1;entryDx=0;entryDy=0;entryPerimeter=0;dashed=1;" parent="1" source="hEeAfSiznl8hPSDihtgW-7" target="aO1q9SQLotEZUZnHG0xy-4" edge="1">
          <mxGeometry width="50" height="50" relative="1" as="geometry">
            <mxPoint x="146.5" y="560" as="sourcePoint" />
            <mxPoint x="227.5" y="597" as="targetPoint" />
          </mxGeometry>
        </mxCell>
        <mxCell id="hEeAfSiznl8hPSDihtgW-11" value="Payor info&lt;div&gt;(manual upload)&lt;/div&gt;" style="edgeLabel;html=1;align=center;verticalAlign=middle;resizable=0;points=[];" parent="hEeAfSiznl8hPSDihtgW-10" vertex="1" connectable="0">
          <mxGeometry x="-0.2414" y="-3" relative="1" as="geometry">
            <mxPoint as="offset" />
          </mxGeometry>
        </mxCell>
        <mxCell id="zGC5hMrO_WNcfAONeZhx-2" value="" style="endArrow=classic;html=1;rounded=0;exitX=1;exitY=0.75;exitDx=0;exitDy=0;exitPerimeter=0;" parent="1" source="hEeAfSiznl8hPSDihtgW-1" target="hEeAfSiznl8hPSDihtgW-2" edge="1">
          <mxGeometry width="50" height="50" relative="1" as="geometry">
            <mxPoint x="777" y="382" as="sourcePoint" />
            <mxPoint x="646.5" y="380" as="targetPoint" />
          </mxGeometry>
        </mxCell>
        <mxCell id="zGC5hMrO_WNcfAONeZhx-3" value="Results" style="edgeLabel;html=1;align=center;verticalAlign=middle;resizable=0;points=[];" parent="zGC5hMrO_WNcfAONeZhx-2" vertex="1" connectable="0">
          <mxGeometry x="0.347" relative="1" as="geometry">
            <mxPoint as="offset" />
          </mxGeometry>
        </mxCell>
        <mxCell id="zGC5hMrO_WNcfAONeZhx-5" value="" style="endArrow=classic;html=1;rounded=0;exitX=1;exitY=0.75;exitDx=0;exitDy=0;exitPerimeter=0;" parent="1" source="aO1q9SQLotEZUZnHG0xy-4" edge="1">
          <mxGeometry width="50" height="50" relative="1" as="geometry">
            <mxPoint x="450" y="390" as="sourcePoint" />
            <mxPoint x="565" y="390" as="targetPoint" />
          </mxGeometry>
        </mxCell>
        <mxCell id="zGC5hMrO_WNcfAONeZhx-6" value="Results" style="edgeLabel;html=1;align=center;verticalAlign=middle;resizable=0;points=[];" parent="zGC5hMrO_WNcfAONeZhx-5" vertex="1" connectable="0">
          <mxGeometry x="0.347" relative="1" as="geometry">
            <mxPoint as="offset" />
          </mxGeometry>
        </mxCell>
      </root>
    </mxGraphModel>
  </diagram>
  <diagram name="Option1-withchanges" id="rwGjcf8xbjCP5JjbdbYy">
    <mxGraphModel dx="980" dy="599" grid="1" gridSize="10" guides="1" tooltips="1" connect="1" arrows="1" fold="1" page="1" pageScale="1" pageWidth="850" pageHeight="1100" math="0" shadow="0">
      <root>
        <mxCell id="8pSg5aJ1G5G2HmFXgLFX-0" />
        <mxCell id="8pSg5aJ1G5G2HmFXgLFX-1" parent="8pSg5aJ1G5G2HmFXgLFX-0" />
        <mxCell id="j9ZnV7UO3W8cm5q8mVtA-17" value="" style="rounded=0;whiteSpace=wrap;html=1;" vertex="1" parent="8pSg5aJ1G5G2HmFXgLFX-1">
          <mxGeometry x="189.47" y="30" width="490.53" height="230" as="geometry" />
        </mxCell>
        <mxCell id="8pSg5aJ1G5G2HmFXgLFX-13" value="" style="endArrow=classic;html=1;rounded=0;" edge="1" parent="8pSg5aJ1G5G2HmFXgLFX-1" source="j9ZnV7UO3W8cm5q8mVtA-6" target="E1wjB_6haOIm3sgUXWgI-0">
          <mxGeometry width="50" height="50" relative="1" as="geometry">
            <mxPoint x="231.6447368421052" y="262" as="sourcePoint" />
            <mxPoint x="336.1084337349398" y="312" as="targetPoint" />
          </mxGeometry>
        </mxCell>
        <mxCell id="8pSg5aJ1G5G2HmFXgLFX-17" value="Users" style="sketch=0;outlineConnect=0;fontColor=#232F3E;gradientColor=none;strokeColor=#232F3E;fillColor=#ffffff;dashed=0;verticalLabelPosition=bottom;verticalAlign=top;align=center;html=1;fontSize=12;fontStyle=0;aspect=fixed;shape=mxgraph.aws4.resourceIcon;resIcon=mxgraph.aws4.users;" vertex="1" parent="8pSg5aJ1G5G2HmFXgLFX-1">
          <mxGeometry x="770" y="393.54" width="60" height="60" as="geometry" />
        </mxCell>
        <mxCell id="8pSg5aJ1G5G2HmFXgLFX-18" value="" style="endArrow=classic;html=1;rounded=0;exitX=0.25;exitY=0;exitDx=0;exitDy=0;" edge="1" parent="8pSg5aJ1G5G2HmFXgLFX-1" source="j9ZnV7UO3W8cm5q8mVtA-0" target="j9ZnV7UO3W8cm5q8mVtA-1">
          <mxGeometry width="50" height="50" relative="1" as="geometry">
            <mxPoint x="544" y="423.54" as="sourcePoint" />
            <mxPoint x="395.5" y="430.66800000000006" as="targetPoint" />
            <Array as="points" />
          </mxGeometry>
        </mxCell>
        <mxCell id="8pSg5aJ1G5G2HmFXgLFX-19" value="Queries" style="edgeLabel;html=1;align=center;verticalAlign=middle;resizable=0;points=[];" vertex="1" connectable="0" parent="8pSg5aJ1G5G2HmFXgLFX-18">
          <mxGeometry x="-0.1034" y="3" relative="1" as="geometry">
            <mxPoint x="-11" as="offset" />
          </mxGeometry>
        </mxCell>
        <mxCell id="8pSg5aJ1G5G2HmFXgLFX-20" value="" style="endArrow=classic;html=1;rounded=0;entryX=1;entryY=0;entryDx=0;entryDy=0;" edge="1" parent="8pSg5aJ1G5G2HmFXgLFX-1" source="8pSg5aJ1G5G2HmFXgLFX-17" target="j9ZnV7UO3W8cm5q8mVtA-0">
          <mxGeometry width="50" height="50" relative="1" as="geometry">
            <mxPoint x="754" y="416.54" as="sourcePoint" />
            <mxPoint x="624" y="421.54" as="targetPoint" />
          </mxGeometry>
        </mxCell>
        <mxCell id="8pSg5aJ1G5G2HmFXgLFX-21" value="Queries" style="edgeLabel;html=1;align=center;verticalAlign=middle;resizable=0;points=[];" vertex="1" connectable="0" parent="8pSg5aJ1G5G2HmFXgLFX-20">
          <mxGeometry x="0.347" relative="1" as="geometry">
            <mxPoint x="9" as="offset" />
          </mxGeometry>
        </mxCell>
        <mxCell id="8pSg5aJ1G5G2HmFXgLFX-23" value="" style="image;aspect=fixed;html=1;points=[];align=center;fontSize=12;image=img/lib/azure2/identity/Users.svg;" vertex="1" parent="8pSg5aJ1G5G2HmFXgLFX-1">
          <mxGeometry x="266.5" y="600" width="42.97" height="47" as="geometry" />
        </mxCell>
        <mxCell id="8pSg5aJ1G5G2HmFXgLFX-26" value="" style="endArrow=classic;html=1;rounded=0;dashed=1;" edge="1" parent="8pSg5aJ1G5G2HmFXgLFX-1" source="8pSg5aJ1G5G2HmFXgLFX-23" target="E1wjB_6haOIm3sgUXWgI-0">
          <mxGeometry width="50" height="50" relative="1" as="geometry">
            <mxPoint x="146.5" y="560" as="sourcePoint" />
            <mxPoint x="369" y="420" as="targetPoint" />
          </mxGeometry>
        </mxCell>
        <mxCell id="8pSg5aJ1G5G2HmFXgLFX-27" value="Payor info&lt;div&gt;(manual upload)&lt;/div&gt;" style="edgeLabel;html=1;align=center;verticalAlign=middle;resizable=0;points=[];" vertex="1" connectable="0" parent="8pSg5aJ1G5G2HmFXgLFX-26">
          <mxGeometry x="-0.2414" y="-3" relative="1" as="geometry">
            <mxPoint as="offset" />
          </mxGeometry>
        </mxCell>
        <mxCell id="8pSg5aJ1G5G2HmFXgLFX-28" value="" style="endArrow=classic;html=1;rounded=0;exitX=1;exitY=0.75;exitDx=0;exitDy=0;exitPerimeter=0;" edge="1" parent="8pSg5aJ1G5G2HmFXgLFX-1" target="8pSg5aJ1G5G2HmFXgLFX-17">
          <mxGeometry width="50" height="50" relative="1" as="geometry">
            <mxPoint x="620.5" y="442.665" as="sourcePoint" />
            <mxPoint x="634" y="431.54" as="targetPoint" />
          </mxGeometry>
        </mxCell>
        <mxCell id="8pSg5aJ1G5G2HmFXgLFX-29" value="Results" style="edgeLabel;html=1;align=center;verticalAlign=middle;resizable=0;points=[];" vertex="1" connectable="0" parent="8pSg5aJ1G5G2HmFXgLFX-28">
          <mxGeometry x="0.347" relative="1" as="geometry">
            <mxPoint as="offset" />
          </mxGeometry>
        </mxCell>
        <mxCell id="8pSg5aJ1G5G2HmFXgLFX-30" value="" style="endArrow=classic;html=1;rounded=0;" edge="1" parent="8pSg5aJ1G5G2HmFXgLFX-1" source="j9ZnV7UO3W8cm5q8mVtA-1" target="j9ZnV7UO3W8cm5q8mVtA-0">
          <mxGeometry width="50" height="50" relative="1" as="geometry">
            <mxPoint x="462.97" y="426.29833051325437" as="sourcePoint" />
            <mxPoint x="597.5" y="420.78000000000003" as="targetPoint" />
          </mxGeometry>
        </mxCell>
        <mxCell id="8pSg5aJ1G5G2HmFXgLFX-31" value="Results" style="edgeLabel;html=1;align=center;verticalAlign=middle;resizable=0;points=[];" vertex="1" connectable="0" parent="8pSg5aJ1G5G2HmFXgLFX-30">
          <mxGeometry x="0.347" relative="1" as="geometry">
            <mxPoint as="offset" />
          </mxGeometry>
        </mxCell>
        <mxCell id="a0_7fSW-mgm9eJGU8Mfk-0" value="Add datalake icon&lt;div&gt;As part of glue - mention data catalog - glue database&lt;/div&gt;&lt;div&gt;S3 is raw&lt;/div&gt;&lt;div&gt;Glue to stage1 -intermediate datasets&lt;/div&gt;&lt;div&gt;Glue to stage2&lt;span style=&quot;background-color: initial;&quot;&gt;&amp;nbsp;&lt;/span&gt;&lt;span style=&quot;background-color: initial;&quot;&gt;-intermediate datasets&lt;/span&gt;&lt;/div&gt;&lt;div&gt;Glue to stage3&lt;span style=&quot;background-color: initial;&quot;&gt;&amp;nbsp;&lt;/span&gt;&lt;span style=&quot;background-color: initial;&quot;&gt;-intermediate datasets&lt;/span&gt;&lt;/div&gt;&lt;div&gt;Glue to Aurora&lt;/div&gt;&lt;div&gt;Tableau on Aurora&lt;/div&gt;&lt;div&gt;Table for EMR data and Table for Roster -- updated incrementally&lt;/div&gt;" style="text;html=1;align=center;verticalAlign=middle;resizable=0;points=[];autosize=1;strokeColor=none;fillColor=none;" vertex="1" parent="8pSg5aJ1G5G2HmFXgLFX-1">
          <mxGeometry x="460" y="580" width="370" height="140" as="geometry" />
        </mxCell>
        <mxCell id="E1wjB_6haOIm3sgUXWgI-0" value="" style="sketch=0;outlineConnect=0;fontColor=#232F3E;gradientColor=none;fillColor=#8C4FFF;strokeColor=none;dashed=0;verticalLabelPosition=bottom;verticalAlign=top;align=center;html=1;fontSize=12;fontStyle=0;aspect=fixed;pointerEvents=1;shape=mxgraph.aws4.data_lake_resource_icon;direction=east;" vertex="1" parent="8pSg5aJ1G5G2HmFXgLFX-1">
          <mxGeometry x="227.48000000000002" y="99.56" width="121" height="121" as="geometry" />
        </mxCell>
        <mxCell id="j9ZnV7UO3W8cm5q8mVtA-0" value="" style="shape=image;aspect=fixed;image=data:image/jpeg,/9j/4AAQSkZJRgABAQAAAQABAAD/2wCEAAMDAwMDAwQEBAQFBQUFBQcHBgYHBwsICQgJCAsRCwwLCwwLEQ8SDw4PEg8bFRMTFRsfGhkaHyYiIiYwLTA+PlQBAwMDAwMDBAQEBAUFBQUFBwcGBgcHCwgJCAkICxELDAsLDAsRDxIPDg8SDxsVExMVGx8aGRofJiIiJjAtMD4+VP/CABEIAIQA7AMBIgACEQEDEQH/xAAdAAEBAAMBAQEBAQAAAAAAAAAAAQIHCAYFBAMJ/9oACAEBAAAAAP8AU5BkYi1IWmJUzkGRiLUhaYlLIMjEWpC0xKRBlLiLYhS4lTJirIxS2xjZkXCzJLPyeC9T9L9xiLUhkMSmXmdYer/bz90r6m/xzLfgfda/+r60uBR575X5vUa99R7HLiztHHV3ld+8Y+/6K0J6vaXPW+/26E9LtXwmXufz6K2Np/1H3dVdT858hdY9L/5//X7q4y2H+P6/qtfc+dJ7S5d/N3DxI7Yy17zR0bnyN2d7RoTfLmb4fW2n9Fdb6s9R6vkfpb3vHGxug+Uve7wzmsdfbI+Rt8xFqQtMSiT5v7/6UxFqQtMSmUxVkYpbYxsyphZklkLTEWpC0xKZSFpiLUhkMSlkGRiLUhaYlEhaYi1IWmJT/8QAGwEBAAMBAQEBAAAAAAAAAAAAAAMEBQIGAQf/2gAKAgIQAxAAAAAAAAAAAAAAAcffvzoAAAIe/M7/ALXxcN+eKrYswfeY+7EFexDJZhglPvXmf0P0XgbNXTz8vQ38bG07daGW5Vy9DazM29x3Qt9WO6cUgAAAAAAAAAAAAAAAAAAf/8QALRAAAQQBAwMDAwMFAAAAAAAABAIDBQYBAAcTEBEVEhQhFiA2JEBgJzAxNXD/2gAIAQEAAQwB/gXz0+fu+dfP3fPT5/gqXWlrUhK05VYZ0aKAL4yhsGhyUef6valsEZ9wxl/LGHUcv7k2THj/AEcyXs6Cmg2ZeTeUkj0yQrdhhCUsIShyRk42vMtuOsudmbTGN3EqRy2ZxRMsNMi5IHS8lHTK04VhPfHf7ZCTjoljD55bArXfvjpaJz6agTZX2/PqDk/Mw0fI8XF/c9+15Px/pXyBDENS0o+tPZuzkEBwRj7C1NuBZWsMda+/qYjTk3MuQy3+mi5hqVfkmkNLRnoYn+uEf8dbBc63V/QmUOS05G7l1CYkAgAS3Hn9b54708XGh916E8QkZMtjGUqStOFJzjON0vwCa1R/wyv6ypKU5UrOMYd3VobJftsyycqHIYKZbfYcQ61qW3MpUKYoQqTxzV+5QFnKLYjHlvZ1BWSGsrDz8WRl9sSxwx0wZEDkeszTiORtaO6k6+nF+f8AT7uV4RpAAkg2KZfcU/PVtEdEEk4PMe0BVkcYhHkTtSBcbLyLkAk8wY2t1l3MhMqcOmGU6se3AVllFyDsrJjKIoQbe4wsB5OQ4oDbMGvy48k3LSb69U+PBn9yraTKtoIfnwggt4KngYdlnpvp+GjZ1b6zW10yQ9YIrGNpCSSaJHc2c51ul+ATWqP+GV/W7ZRItGP4e+NQUDas1dgUSr1x8XbSDnq5XVR0vhGF2MggSuy5A+cpe2fgIJ2qJOWMw+VtqwyNeLwyw2lppP8AnWx3+gl9VH53cuPWbk5eO4fYQzklqIm7Aza7E+1XHXn3H2pCvLdnBvHNyx8pFhC+Ih1Smhpu0I3GPLTV1rNgzpaQCy7JReYx7o9UiXb+PZfdN4a6WTbhuWmPNRcmRESMNtvKjWQKcl7G7JPau1TRcodEeopQundrJ+TQgaYuRxYUbHBxAA4IbWGh9xxCjqTLDCsOvvU5h8WpwjD7S2nZKNDlwCATGuVhrbO1RKfbQtxKGCrUK/AxKA35B+QdUnC05SrGFYc2sPjS33a1ZColmk0Z2pkSRZEo5IE6ztzJRciYVWrE9Et0+kC1TJhCi3jj+sbCPg2Gbk1uoUncDzvgpb04B8bA/UPHjyWAOJiuvs3Yyfy+jLX7swMU8ZwYplDzKU4QnCcY7Y/5f//EADoQAAIBAgQDBQYDBgcAAAAAAAECAxESAAQTIRAxUQUUIkFhFSMyUnGzILGyM0BCcJGSMDRigYKh0f/aAAgBAQANPwH+TCUuUHcV64SAtFC7i4ny8Na4QC/SkD2160wFuMdwuA606fvT1ppxl+XWmJtG0CFifCvmPLGZhZEeWO0rv5+eJWs9xAXOwrvbiTs6OIL3Z76hq7rzpgOyUljMbVHo3E8hXf8AEWtvmcItedKn6ccsEOndZde4Tnv1xm8tHNp1utvFaV/xO7a938NLrafXE5i0zXnaKHCBbXHMeIYaFCT60w/ZsUSvcN3DVIpjIZw5Zi1PEQAaj034+x2/S3F1uWJVLuR1ovIfXGcJCe5YAEVNGJ5cuHtNPtPjYXtE6p/cRgioI8xi2D7y49mZb9GACSSaUxWl6xOyf3AYkUMjoblYHkQRwRrXEaNIFPQldq4yoQu2mVUhzQWk8+XCGXSdrGTxUrTxAdcZNbp47GFo+pFDz4MpFVNCK9D1x7O/zHeXrfqfBf8A90xkoo0mrWo1F8JuPM4jC+CR6qfFTfFIpLLxb1p9MRQpmn7szRMIyaDx+teWIO1vd+/ZBmFUA3v89fM8GjRNOB1VPB9RiXIGY5i8a1Qp2rTltiEPSOaRShvW3eg4ZScjLxyi4KBIUrQ/KFAGJIS76aBLj7wVNOHtNPtPjLZB5YXSJUMbotVoR1OI3nijJ+RJCF/pi2D7y49mZb9GJZIYpCPkZt/68sZrLBteSYmWXUHxlvm/LEeakaAJJqUjeh/OuIchmHjI8mVDQ4zGYmWd5EDkWNQJvyFN8R5hVRFFFUCV9gOHtQ/aXGgP1Lxe7UtmWLTpy+LnXE4yuvlxmUXQtXw+LzuwVJzETzfswrbVdcGi2LmUgsQLs1X54fseJHyXfovBHftJqcjXpjVZRAZ1n8I5Ncm2/GLJGDQsNxJBFbv9+J/aTRCqvtTcAjfrjJ101MNNqEUqWO3i4JmFmVwgfdQVoR03wCC0CoRWnqzNjLxhI0HkBiRYbI41uZqSqdhiLs+BHjcUZWC8jieMpInp/wC9MXG2J4ySlelGp+WNSR5MzN8TGQ16nbBBBB3Bridqtl7S6j6UYcvKuO0LNV2js+Ek15tUm7hnGuly5gWdK/6a4zzXZnNy7Ft60A8h+DtHu9qAbppLTfHdhfW/vHrT+HGhHo931Lv+d/pifs2PKiG03Aowa6v75IKPG4qrD1GAKAfT+WH/xAAjEAEAAgIBBAMBAQEAAAAAAAABABEhMUEQUWFxIIGRofCx/9oACAEBAAE/EOOYc7n7P2fsPuP3O25xzP2fs/Z+znmP3H7nHM/Z+z9h9x+5zzH7n7P2fsPuH3HfMzXMLp3MzMbhcb8zONzNcxuZmYXM3zG/Mb8zNczMzMwvzG/MzfMb8zMzMwvzC/MbvmZrmF53MzMbhcfaZxuacxuZmYXM3zH2j7TNczMzMwvzH2mb5j7TMzMwvzC/MbvmcQ+BHpx8eYxnHwI9H4EIy8cwd7l+5fuL7g+4vuXrcvHMX3L9z9g+5eeYvuL7l45n7L9z9g+4vuXnmL7n7L9z9g+4PuLnmYrTCqZhEMlpWU2XFlMOX+Mhh4aEdicrV01BQJyI1oe4nmNTGNzFafjzpjXZjU409MdCo12Zi9Ma7PwIR3M1pjhoep8b7G5bFqLNw1ZhbA2lFBFUMQm8gGSlicEGWPyZ8007WJlicvLurOGZxhma0xKEVqLHgmfM/YX5i55jdaYcXpbmIKgqJqFBNOSfsFRH87C1qS+tcX1y6hfmL7l55ivZ6XP2D7g+43fMxUrOU439dlBu0uKl7A1HJ94dhNRfEjtqKrAShnZD5kjjoUQ+16hwQLNRb+P/AD5SDjo/mFI7VyVOGDcRYP0FLVLqKVtmlBO3XWcE8sOa5QRCxE2PQ7/rdkJS4AALVXQR6dXfQrRPJAYj9B3YBGNVLv8AY/exmjkir5uuC0aLAW0RjhVVyXRjiHcD0+yGpoaenLk+VlWGhwzDtDKg8H4xZvAmu+DpzKxSs8NeGACIZi5uAY6jj+j5wpSLKGRLADj2hnxykZVSLUAoQXLDeqOcI1xl4OtrevKgw3DL28qz3izSvutCrIyW0TggaHEXMs4TbFE0JzEbm+FYetDolz/zYRMZbDh6+qigeHxWv55MQOgQKmwKzjfjrZUHkgndafR6ujAf7fl8JommYkuprudh6dtczVeNH4c6uxlsWl4KWZXNiU7myd/oGaGM17XMEa8vqDBjIplSmZiTX1STVpPRLcbltcwzI7e3HqrrGDOkKoupGYQ0ymjdq6OnQKaJmuZXzvZbs0tEtYHD8eO9KM150e8tyrtXKy7207nAIuptJWJukhalgUtZsTIHKNMYLLCo7RF+CC3myL69qDQKwr5jUBSI7GV6ofsYWDpQpGcC95fyZOSstjkunW+Syt4hPmjlNEV5FXKrGWVqYpxCAsHSydndxVKK7lFn7tRKq+SlZ4OFVDA3Ynor0jUU7SzGJZWoviX4l+IPiXnUU7RTtLK1L8QfEvxBO0U7Sy9RTtL8S/EvxB8QTtFL1OIdKFD+3F0myBCGBgAUBCPTj48xjOPgR6PwIRmK1/YVTjq+oeo12/sxRj+zFa/sfU+uh6jV6jXb+xqtTFa6fXQrtGu0avUa7f3p9dCu0K7R3qcQ+BHpx8eYxnHwI9H4EIyytQrOOrUKinaWYxLK1GpjoVMXqKdop2mK10x0E7RTtLL1FO3THQrtCu0avU41DnHV9Q9R9Tticaj6n10PU51H1H1ONdProeo+pzqPrp9dD1D1HepxD4EenHx5jGcfAj0fgQjP/8QAMBEAAgIBAgUBBQgDAAAAAAAAAQIDEQQAEgUTITFBFBAVIiNxBjBAQlBRYWKBkaH/2gAIAQIBAT8A/Hx/OICdbNf9rVN2r73IjyJIXWCRY5PDsm8D/AI1wZuI8H4fmZeXKGjglzpuUIdjGpnfdZbsw6gaw54Hhd3VreK+rVd+O3fTja5G0r+wJvWLjDJ53xbeXC8na72+PYuFmPFzVx5SlE7gpIod+usHGGXmQwFiodqsanxsnGIE0Tx323KRejBH7rWevmHJZL/gKDqHHyMjdyYnk2jrtUmtdRdiiNNh5iRc1seVUq9xUgVoI5RnCkqtWQOgvtp0eMgOpUkA9RXQ6Wc46sRdEUaFn/Q1xPh8HH8SWMxbp+XMkJIdQC1qNcA+z0GJjSGBEjIiDH5osutDqHOsmWSWU76sUOhsdBXfXD+LTwJLG8+1RjOsYr83jWRkz5T75n3tVaGbiM5yPUlB6QxCCm6HZtoV0rXDZo8fPx5ZDSI4LHvQ1lzQJgnGXI9QzTiTdRAQAV58nRZfcyLY3erY15rYNcOzIEwjA0kcUgn5m5wxVhX9PI1kTiXNeY7WuTcdo2g/QHWVmYjJxCVcsyHJVdkRVrX4g1Hx01hyweky8aSQRmbllWIJFoT0NfXXEp4sjJBiJZEijQNVXsUC/ZilMWVGC2A+4j6mzoTOrSFaUSKVIA8H9a//xAAuEQACAgEDAwIEBQUAAAAAAAABAgMRBAASIQUTMRQiECNhcQYVMEBRQUJQkdH/2gAIAQMBAT8A/fzSLAjPJ7QFs39r0rowBDAg+CD+rHJBHKhnUul0VDbSSfHNHXUocDrefiYWNHT5CYcHcaXeo3RqlUFHK+CddRxspJ4kidAsc4FCMmqBF2CONJu2DcwY1yQK1kT9jtcXvlVPtfwbKxlk2GVA11tvm9Zk5xcaSYAHYLo6inhnB2OrV5o3WhNJ69or9ggDV9S1alnhhruSIl+NxA0DehlYzSCMTIXJraDzouoZVJG5roXya0rq4JUggGuNJ0s9VyIYF7e/da75FiXgXyzlQNT42X+COo4UqTp6Nx0+WdUngmdi8ayuAqkkLZO0+K11zr+TnZCHId5PmEL8vwrc/wBo1EF2Ar4PPgjWZ06GVo3WIFjOpc/T+uoYIoE2xrtF3r0uQoEXYDfP392x4u/vrOiebDmjQWzJQF6xopmyhMYRCBFsqxbG/poK35mzVx6dRf13nWZiSPld3ttKhi2UrAEf7/nUMPbxViW1pKFmyNY+NkK+IjY4TsE7pARR4rjWUkoyMedE3iMOCoNH3V/zWFE8MJDimZ2avNbj8M/LyOouJJ2BcQRQggBfbCgjQcfwF00asFB52mx9/wDNf//Z;imageBorder=default;" vertex="1" parent="8pSg5aJ1G5G2HmFXgLFX-1">
          <mxGeometry x="607.5011657374556" y="398.71727272727276" width="88.74647744551444" height="49.64014191586417" as="geometry" />
        </mxCell>
        <mxCell id="j9ZnV7UO3W8cm5q8mVtA-1" value="One Dataset for EMR Data&lt;div&gt;One Dataset for Roster Data&lt;/div&gt;" style="sketch=0;outlineConnect=0;fontColor=#232F3E;gradientColor=none;fillColor=#C925D1;strokeColor=none;dashed=0;verticalLabelPosition=bottom;verticalAlign=top;align=center;html=1;fontSize=12;fontStyle=0;aspect=fixed;pointerEvents=1;shape=mxgraph.aws4.aurora_instance;" vertex="1" parent="8pSg5aJ1G5G2HmFXgLFX-1">
          <mxGeometry x="457.5" y="370.36" width="78" height="78" as="geometry" />
        </mxCell>
        <mxCell id="j9ZnV7UO3W8cm5q8mVtA-6" value="AWS Glue&lt;div&gt;(ETL)&lt;/div&gt;" style="outlineConnect=0;dashed=0;verticalLabelPosition=bottom;verticalAlign=top;align=center;html=1;shape=mxgraph.aws3.glue;fillColor=#F58534;gradientColor=none;" vertex="1" parent="8pSg5aJ1G5G2HmFXgLFX-1">
          <mxGeometry x="160" y="292" width="82.5" height="110" as="geometry" />
        </mxCell>
        <mxCell id="8pSg5aJ1G5G2HmFXgLFX-2" value="" style="rounded=0;whiteSpace=wrap;html=1;" vertex="1" parent="8pSg5aJ1G5G2HmFXgLFX-1">
          <mxGeometry x="10" y="230" width="117.78290993071595" height="400" as="geometry" />
        </mxCell>
        <mxCell id="8pSg5aJ1G5G2HmFXgLFX-3" value="" style="shape=image;aspect=fixed;image=data:image/jpeg,/9j/4AAQSkZJRgABAQAAAQABAAD/2wCEAAMDAwMDAwQEBAQFBQUFBQcHBgYHBwsICQgJCAsRCwwLCwwLEQ8SDw4PEg8bFRMTFRsfGhkaHyYiIiYwLTA+PlQBAwMDAwMDBAQEBAUFBQUFBwcGBgcHCwgJCAkICxELDAsLDAsRDxIPDg8SDxsVExMVGx8aGRofJiIiJjAtMD4+VP/CABEIAMMA7AMBIgACEQEDEQH/xAAdAAACAgMBAQEAAAAAAAAAAAAAAQQFAgMGBwgJ/9oACAEBAAAAAP1PSGZJ4iZkkmsgeDTBpDGFFTapV1bNJrIDFpgCAyjcNXTJEjbOv9iBg8QYskga8+jzpsjbte22AyAxBgxAc9zdjN3yJGWa2SBZMMQYs1iM4bbYSpO/ewHjqN+TwayEJDjchaTJUk5ep29DfYrTFjzZ2LTBiCtp58+B8eeNVuqLD6n6s+m1phQ7KcDECCsgT53KfJvklNrjQOv+jvrUIsCJ0OYxZJRqbCXPleU/FvqUiFpfE8j+oo9MGBYWQwa53j7G4sp8nyf4UNd1VcxC6f8AU5ZYQq/O7GDoOE2W9zPsN/k/wp2FZ2urzfTM/TdZEKvizrPaC8yi7La6n2G/yb4el9kTeb5ev/UoZDgVNPH7a7VNwC2WtzYz5Hk/wt6jPnQN/mXNfqYssYVfWUsHP0idyvIp2dzZTpflHxB6t5h6lTeWet+b/psPXBgVNNGfSdny/IInXFnOn+V/CnV9rXzsPINX6lDjQYFPU6nZ+iU/AI321rPneY/CqfosXyWD0n6lGuHCrqaBi7P0ReaRAsLexm0vx75fhpiQNv0l9l6o0SDVVWgd53eVL5+PZZWk6XI1cpR1vT9nN1x40KvqoQjur8KLj4ZKn2UziK9yd1JVS/a4saBWwMBdJ2jaSgQNOdLLylZ7d0bLBRoUW2i4Sru1AEBkqrktsrdtZvvYNQX0p4gxZJA2GiiqIuci5vcgbDEGDEBkGIa8NuYgbDEGJpA2GIDYkDYYgw//xAAcAQACAgMBAQAAAAAAAAAAAAAABAMFAQIGBwj/2gAKAgIQAxAAAAAAANtGU4pYWgAAAAAAnVtqGFmKdVxdwAAAAAC1oYmYGYpcba7hjJkAAA2jfq1XOz8xtqON/nOy5fs51td4WAAM4nUzrKr7H80Zn1sEL/x73naNpFV/XcN47rmV3ULNyr94+SEbfSzzZ+C/TBhlMys2ZtKOwqELZC0cqvbvlWi6yJ+0j8N+kTDKdjUbxUfT3PNtopWSFs1We1fLlZe6PzzeI/SGdXEbGmnTpuknUsqaJmut8w+6/JxjWxrOt8Q+jpl3K+wp946boVLG75lhNSxTsZEnarOFnq+9ZUeq51I5aHq9JQkhkicrgimxvFLLFJCs1kXc13AAAwwnMvFOs6ZAAAAAAAAAAAAAP//EAE4QAAEDAgIECQYMAgUNAAAAAAEAAgMEEQUSBiExURATFCAiMkFxgTZCYXKRshUwMzRAUmJ0obHB0YLSBxcjJFA1Q0RTY2Rzg5LC4eLw/9oACAEBAAE/Af8AB5a+CPUOkfQnYlKeqxo/Fctqt49ibXTDaGlR1cb9R6J+kSSNibmcbBVFXJUXHVZu/dBiDEGIRrIo3ui1bRuTXBwuPopIAVTOaiT7I6oTWprE1qDVlWVZU27Cuz6JXy2aIx523uTWprEGoNQag1ZVlWRN1fRJncbM53ZfV4JrE1qa1BqDVZWCsrBWHBqWYLjGq4Px0rskbj6ExqaE0IBWTnNjbmeQ0bybKXHMFh+UxGkb/wA5qdpZo00/5Tp/aU3SnRx+zFKXxfb81BiWHVVuIq6eX1JWu/LmkLW3YmS5tR2/G1XyXeQmhNCaFXVsGHUc1VOSI4m3NtvcO9YppzjFY5zaZ3I4tzOv4u/ZVE89S8unlfK7e9xcfx4XIgKix7GcMtyWunjA83Nmb/0m4WienbsWq48Pr42sqJL8VKzqvI12I7Dw2RCcoZc4sdo+Mqeq3vTQmhBY6/D2YXOK+/Jn5WSEdmY2B8Cq7QvEo28fh7mV9O7Wx8bhmt3KppqmkdaoglhP22Fv5rM07CEUVnZe2YX3Ki0fx3E7clw6ocD57m8Wz2vssA0WodF66kq8XrIjXSPEdLTs1gOk6N95Pp2DmOCcFcsObcmkOAI7fiZJY4hd7rI12bqM8SjI6TrJoTQgtNvJqr9eH3wqPEK7D356WolhPblOo94UGnuNxjLMynqB9tlvdTtL8Mm+c6O0cns/VqdpHooTc6LU/tb/ACo6UaNR/J6K0niW/wAq/rBlpx/csHoKfwv7uVV2nWk9YCOWcQ09kLQz8dqwKSSbSTC5JHue91fBdzjcnpbzzCnJ6pndEjcfiKqt4o5I7F3adyu57ruJJ3piYE0Jo4NNvJqr9eH3xwlYnhdRhb445nMJkZm6PsUeHVc9HPWMYOJgNnm+vwHinIrR7ygwn79B73MKcnKm67u7n1tTxLcrT0nfgOBu1Rpqam8Gm3k1V+vD744MJw6mxIyxyVPFS6uKb9ZYhhlZhrrTM6N9Ug6pWmPzuk/4B95YX5J4r6zvyasNwXEMXd/d2Wjvrmd1fDf4LFcI5BWOp452TAAXfssT2d4WAwxR49hWZ/S5bDq/i5rk9Mk4p17XQrYe0lvemua4XBBHMJAFzsCllM0jnnt4G7VGmpqHBpt5NVfrw++FBDLUzxwxC75HWaL2VXQ1dC608RZudtae4qg0imgbxNW3lEJ1G/WA8dvisbnbjldTsoGyTFkGsZbdt+1YLWYbRYdW02IHL/bHPC5ty7UNVvBYppXVVDDFStFNT7NXWI9J7B6AqHBcaxjXBEQw7HvORru7etHxbSLCh/v8PvcwpycnqRRyviddhsqWrbPqOp+7hrn5KZ32tXC1MTU1N4NNvJqr9eH3wmlzXBzSQRsIWH6QVcpFLUQctD9VrdP9j4rG8DoaeFs8LxA572tbE46jmNtXd2qtfHotQNipY888x6U7hquP/tQWJU9PjmDnFWxmCaOMk5tjw3s/lKwjBcKiom1zY/hCXJmy3Gp31QDqB71jGk2LVpfBrpYxqdE24d/Edq0e8oMJ+/Qe9zCnJykT+BpLXAg2IVNMJog/28GJnoRj0nhCYUxNTUFpt5NVfrw++FTsjlnjZLJxbHOAc/6oUmLYbg8ZgwuNsj/OmdrH/t+Se+sxKp18ZUTP8T/4CiqzRM+DccjDonMDmO+U1bjZYlLiWkET+RQnkVO7K1l7OeR22/RUdZW4dOX07nxvGpwtt9DgU6twfSCC2Jx8kqGN1TN/T9isBigjx7Crvu7l0Nh/FzCnJykT+HDX2kczeL8GJjoRn7R5jCoymlNKC028mqv14ffHBhGF/CckmedsMUQBedV7ei/5qTGcOwxnJsLiaSSA6Z3b+rlpj8+g+7/9xWBVElLo7iE8ds8Upc2/c1MxDBdIAGVbRS1WwSdh/i/QrGaGfDKx1NJMJLAOBbudvG9aP+UOE/fofe5jk4p6eU48NEbVUfp1cFczPTu+zr5jCmFNKaU0rTbyZq/Xh98cFl5ze8LSuogqK2AwyMkAg1lpvtJKw+tpYtHcSp3yhssh6DO117fsnJy0f8ocJ+/Q+9zCU4p5T3I8NF86i7+C1wpojDK5ns7uYxyY5NKaVi2HRYvh81HI5zWyW6TdoINwsS0NxygJLIeVR/Xi2+Ldqka6F2SRrmO+q4ZT+PAUU8gbTZUtFW4g/JR001Qf9mwuHt2LRn+j7EYq2mr8SkEHEStkZAw5nEt2ZjsHhwXRKcU5ye5OPMw5t6i/1Wnhq6bj2auuNnMaUxya5NKBQcpIYKhuWWNjxucA781Lo1o/P1sOpr+hgb+SfoToy/8A0K3dI8fqpNEtEKZ8TZKQZpXWY0vkde3iqPANGmxxzU2HUmVzQWP4sG4Pb0lE+C74o7AxWzNGq1xcK6ui5FycU9ye7m4fDxcWY7X/AJcypomT9IdF+9S080PWbq39nC1yY5NcsyxmWSMsfynJGyF5dG2oEDz9sE9a246k+aaSHE61lZUt5PZ0LL2aAImvs5vpvrU1a8R1VQa17KuKctips/RNj0GcX52cdqfjUuHSvgmHGMpZHPqpTrLYX/Jkbzr/AAUMMxrcKkqZZePdT1T3tzmwJynLbcL2WH1DXUcYnxB9IIKOnMAbJkuDHfjPt69VlR19U+MF8j2RTR0XK6wHpMzRD2X7Xdi5fiFzKZ2tm5Vk4s1Wrr24viQ3d27e1F2solFyc5Ocib8ykonPIfILN7G7+e+lgk2xhHDoDszDxXwYz/WOQw9rf84fYjeN5adoQenNiltnY19jcZgDZWYQ4ZR0turaskRkEhYwvAsHWFx4ohhvdo6Wo6tqOUkG2sdvenRQOyXjYcnUu0dHu3LLGGluRtiLEW2riIy7jhEzOBbNlGa3ei5F6c9dOR2VouUcNcR8pr7kcNn+sxfB1RvZ7U3DD50nsCipIIdYbc7z8ZUUwmF9jt6c2SE2eLIPQes6zrMsyY10h9G9AW1KSAP1jUU6kn7C1NoHnrv9ijhZCLNH0J7GvFnC4UlA3bGbegp1PUR+ZfuWa21cYml7+qCVHSuOuTV6EGhosPpRaDtC4qMeY32f4f8A/8QAJRABAAIBAwQCAwEBAAAAAAAAAQARIRAxQSBRYXGBkaHB8LHR/9oACAEBAAE/EMVCs64hUamMTFTExpiYuNRqYrTGhUamLjWmNCoVGrnEOgjpxElEuNv3NjHzagn/ADxr8bUUBW77fcu4zjoI6PQQjOIdBGLax+fBEg3MF38rmXNVMEvNSUfJfqA9icdBHR6CEZiuYc79BGCtBusuRZj/AGPllvE2MSk2nghntN0zjwtncgiE6Co15mL5jXnoIR3lNQHPSm+MvV/2bOJtTDtPDo+Gb9p6Ri+HHQDEZTcR6AYDEzAK5gFO+rKnc9TwMCVViY7qeGeGBARuiSMsWiiJcMOeyGQNkxfMQ89AHmAeYhfM4hz0OPuKokGjEHGIcB2jwJ3ED5ZurG4onwLKA/G3+Exfx39cQDjsJfSjg2dEGJPDLW2mYSwn4vSQjvLagudWJsdhK6gYgVcTMeta4A5U0QMK7VqPLz8IqSbtXymNBgCKzK5gtF96jScOdfcQxMDAOs/jFEw6OYh0gjcSw/cd+gWCxcziGrDYTsTAMNEpjGIVr4OTA3MxNAK8rU/DKhA0n5sEQNr0joYWtEXAXYBtfgzHRsN8okYnuDsYKpDVg1Es1ihG6myUB1IRnENKyL7HL6Jepq4/4kphHwVobE2OnK/sNiv8Awfyvlv2CZVJ3Rz+2fQAmVsqcv8A3jXdvRf4T3bw9+M/ziyoHXV3sXUhn7QXLPVvnUhGViBhhNQcbh/2xbaN02wyipsTASsQ65XCwt4JU4TWoZUZDZI/IBJLYvuBS5tm1n9rslSoEMMEsF3itAgRMysRzUFv+SVBAYWWgSpTUOmVdGBQIndzvXYbm/Xpdc3fh8M/o98UNFmzgofHJ+IRxfAKDLBYNVorPeKlQIkDAwVaFJiJaQ8MQE8cjZAgRMxelAq9gnNYwdg2NGQozGhmJitOQpTGUXvlh+9OLI8OJhvxgvuYHxC42BYc1eNBALsuUdFOeYBaigj1SiAdXLep2xv2CojW4L7DqVKRxmdKJZqvw+yGVhGeD5IVHeVgaUH07w0pcYRmJTEriYrTkqFhRSJsiRrYqkqPI4PP2hsXxrAnche+EUbuNvdvz8ITYcLbE5cj+mOwMAU0204O92Ie2fi09L1gmH9GExoVFRGEdylMrokZFj2ZyOcDskajUuX+iGm7SW04RYIrNOWG5p3Zux5pKzh720r6jJ3Bbx/gfAQmytYBcbxpMJkiqYIQS3c6HHCLXK3hTfBPpi26Ga3RzLWZU+NO9N9SOOPDFMh0Iqe1T2aN4w/ZDoBmxNqPDryFzDdDXwB3UozSZRXSl5PLjRpExQiyzcIkVgJBfCwxdtLKjcOx3Ex/rw6FoLGlm0I3lH7Gi190H4h0HfxNibE2or0SbQwjsM/DAAhoyIgpzTE1RsvBJX2uDFaP5/ZquJv6mkydCC/Bf6NEIJYjcdBgyu62nxPiCjtNq4TNmLjEBmjKKU2d6SUPHbLTy4Pq4tG91/RRhnbMwlsw2wHdamRF7APe18sMxgk/vhni0vxHxj8Snjmb2NB2fE+Ieop1wj5cEfUrEG08r7nJERRERpHSpQ6G1Layy/lmSXBPhn1aKLfbrH3WPXHK7anOxbgWDl2I4DaSgsCFlqmCOmNVtkYgjoKO8pvLqCqsqVNotLWb1wiTFQ5iCuD0fcQz+HMWQ3uVVvKazDxmEn8LeEIgiU4xQf1Tpe+nm+B24gvg2DB8rCXfmxInJqKi2240fCmLpLzg1YfwxDzFEIyQ8r7gVHO4CobTlvxllh3UqoFNqq5gtcqlWSedmPfX01WVccsWUMrz4hGcQ50SyNLdeTD+Jvj12/2NlgfBOcfhFiNUYTzNkdZVHJd0wQFFZRVys94oaZLE8G4Ivc0LQ0Nh7hLVCCCCw3A+Z3n+ww8z8JWg1AaFVSclQ2MExHYUup5ZVzNzMMlJwQjQxLHCD2T5SHOHyf1G1V6/Yxw+Q7AhHecQ6CMdpVjSY4Phl5q/D6ZXWZ5YB5lF3lYyarZvAEBQSyR/ExTkHtIrYB2Nv2zFXe7uvt0eghGcQ6COnESl7CRSpfsJvyPfOXdWHziexEAynBKpKdm8KgAcdBHR6CEZTUBz0BEZTiU10bCPsuCLAfWUGxEZTXQDEZTcR6AYDEzOIdBHTjp5jGcdBHR6CEZ//8QAOREAAgEDAgMEBQoHAQAAAAAAAQIDAAQREjEFIUEQIjJhBhMUIFEVMDVCcXJ0gbGyIzRAUmKRodH/2gAIAQIBAT8A9xEdzhVJoWU+MnA/Ont5k3GR5fOQQmZ8bKNzQKRDSgwBTS0ZakVX5jf5uLEMIHU8zTyZ60XJ61rNaqJyaAJrBG499BqdR51I29YaR1VVLMxAUDck1Z+g19Moa5njgyPCBrYfoKT0BsgO/dzE+QAqT0BtCP4d5Kv3lDf+VxP0S4hw+J5kZJ40BLFeTADrg0DStUkeBqXb3QCTgUkMikMRipDvXDohccRtItTJrnjXUu4ywGRQHpDactNvfIOQYkwyfnutfKXEl5NwifP+MsZH618ocVbwcJcffnRf0zV9Bxu9tLj2iWG2hEMhZIsu7ADOCzcgOxTUZBGDtTLpYjtjRpHCruait0gTlzJ3NTGn3rg30xYfiov3Cp547aJpJM6VxnAzTXmu6s0hkVoplkJI5+EcqivgDdmYoiQy6QduWAaup4peHzsjZD28hHLHIqe2PpU0cjPlVJHbw+MYZyPIU21TU+9cG+mOH/iov3CryW8gb1kSRyRBe+pOlh5gnlQmsHlhubKJvaJGdVjPdTOO8T9nlXrbBDJdzxSNMZtLQnmqOB06Uxu3sbxp1iRTA5RE5kYU7ntj6VCNqntkmXbDdDRBUkHcVY/y6/aeyUVIK4N9MWH4qL9wriMFuyia6kf1MY5xjwk+YFSOb6e3t3tfUQMrmI7SAoNxjw1HMbUXNv7LrtYpNDFeZHIHLDrvvXs8UXDrl4JXMUlu7Iuche6duwVGNqhHZfKBPkfWUGuHyjDRnfcdkigipF3qwlS14jaTSZ0RTxu2BnkrZNWt9ZXyB7eeOUeR/UbiprZZLmCcsQYg4A+OqobZIZJ3Uk+uk1ny5YrjHErCys51mnjV2hdVTdiWGBgCgKQVEu1IMChvV+QZgPgopHaNgynBFQ3UUo3APwo8xUiZp4zUdk7IkiyBc7H4HUBio340gxBfT520iRhsOnx3qV+ITp3+IXMpHiy7sD3ivIflTcJkDkesTZevUilQmkjqNAAOyWVIV1MakcyOWPXtWaVPC7Cvarj+81FIk6DmA3UU0bUYz8TQjIIIJFO+g4BOetRvE25CmnuYkXCd40t5cL9Yf6o3twR4gPsFMzOcsST73PoaS6lXc6h50LxDun/ae5ZhgDT/AE//xAA9EQACAQMDAQUFAwgLAAAAAAABAgMABBEFITESBhBBYXETFCIyUSB0sgcwNkJigaGxFRcjQENScnOR0eH/2gAIAQMBAT8A+xJJHEMuwUedHUrbw6j6LUd5BJwcev5y7uRbR55Y/KKxLO/W5yTSQClgAqFmTYnI/NzE3FwzeA2X0FRxcUsWBQj8qKClGBRdR40GB4P25SVjYjwFRR+VFo4YmkdgiIpZmPAA3JNaj+VfSbeRksLWW76Tj2jH2SH02Jr+tjU3b4NPtlHmzNVv+VC+JHtNPgYfsuV/nmtI7c6XqkyQSI9tK5AUNupJ4GRXSDTqBuKimyelufA/ZJCjJOBUtzE6sqnJNRLxWuTm00PUZwiSGK0mfocZVulScEfQ0D2Ovz1lrzTJDyoQXMQ9OHFR6PoTbx9orUj9uCZD+E1Dpmhp8+uxN/tW8rfzC1pdzoFheWxtYZ7uYzIFknwiIScZVEJJPc42qXY5qNutAe+WVIY2d+BU11LcyZY4XwUVBwKiFdqf0a1f7hcfgNWttNeTpBF0l3z0gsFBI8MmodNMdjqMlxG8c9s0IUHb5yc5H7qGnFVsRAryPPB1sOd8kVYxPFqFsjjDLcxgjnhh3EZqQc1BNGiBWYA5oEEZHdq02WSIcAdRpeat+BUVdqf0a1f7hcfgNabBpt0DDcSywzMwEcgXqT0IG9e76tFDdWWqXCe6QLG8ko/tJMZyqg87+fFRxam4hsoJoktxbhknAId4idsjnx4FW4tF1CySBpXK3EfW77ZPUOF7ialPNXJ2q1vJbZucp4rSOHVWHBGRWp597f0X+VDmrdtqibiu1Bz2a1f7hcfgNaRdXkTmCxhi95mOFmPzqoG+Cdh5moIk0y1u7yK+F1dRNGs6jLQsJScq2fn45o2y3ful176Y7yeLrAc9KncjCHgeQqG4mm1KzWeNRKlxGHbGGb4hz3OdqlNTt3aW5a26f8rEVq0PxLKP9J7oXwRULitYt5r/AEXULWEAyT2k0aAnA6mUgVf6TqelSmO8tZoGB/XXAPoeDVvePFZ3NqEBW4aJifp7PP8A3XvclyltGwAFvF7MY+mc712e0nUr+9tngtpHRJUZnIwoCnJyTRNSOMVNIACakbqPdpSkW7H6uakjWVGRhkEVc2U1uScdS/UUCQahlqOXOKm1eJZJYXhZ+jlTjdeksTv6YqVey0rE3Ol2nScHrMKNyTjOBkHYk/QVAukWkp6dIsoRk+zAiRW2RX3YgAHeou0luYgTC43fACn5VOKaSpJed6mlzXNQwSTuFQZPj5VDEsMaoOAO97aCT5o1P7qFjaj/AAxUsUls/BK52NJIh+LpXJ5OOaDrv8K7nJ25JGM0XUg5UHPORUcQmG6jpHH/AJUsU67BS3pSWc8x+P4FptNtG/VP/NLptopz0k+ppI0jXpRQo8vtEAjBFPYQOcqCh8q/o9wdpf4VHZKhy7Fv4CgABgf3b//Z;" vertex="1" parent="8pSg5aJ1G5G2HmFXgLFX-1">
          <mxGeometry x="14.389145496535793" y="370.3636363636364" width="88.98336239807702" height="73.52594617523684" as="geometry" />
        </mxCell>
        <mxCell id="8pSg5aJ1G5G2HmFXgLFX-5" value="Payor websites" style="sketch=0;pointerEvents=1;shadow=0;dashed=0;html=1;strokeColor=none;fillColor=#505050;labelPosition=center;verticalLabelPosition=bottom;verticalAlign=top;outlineConnect=0;align=center;shape=mxgraph.office.concepts.website;" vertex="1" parent="8pSg5aJ1G5G2HmFXgLFX-1">
          <mxGeometry x="48.4526558891455" y="515.8181818181819" width="40.877598152424945" height="35.63636363636364" as="geometry" />
        </mxCell>
        <mxCell id="8pSg5aJ1G5G2HmFXgLFX-11" value="Source systems" style="text;strokeColor=none;align=center;fillColor=none;html=1;verticalAlign=middle;whiteSpace=wrap;rounded=0;" vertex="1" parent="8pSg5aJ1G5G2HmFXgLFX-1">
          <mxGeometry x="12.424942263279446" y="230" width="112.93302540415705" height="21.818181818181817" as="geometry" />
        </mxCell>
        <mxCell id="8pSg5aJ1G5G2HmFXgLFX-15" value="" style="endArrow=classic;html=1;rounded=0;" edge="1" parent="8pSg5aJ1G5G2HmFXgLFX-1" target="j9ZnV7UO3W8cm5q8mVtA-6">
          <mxGeometry width="50" height="50" relative="1" as="geometry">
            <mxPoint x="83.78752886836027" y="404.5454545454545" as="sourcePoint" />
            <mxPoint x="160" y="352.1818181818182" as="targetPoint" />
          </mxGeometry>
        </mxCell>
        <mxCell id="8pSg5aJ1G5G2HmFXgLFX-22" value="&lt;span style=&quot;text-wrap: nowrap;&quot;&gt;EMR Data (Athena)&lt;/span&gt;" style="text;strokeColor=none;align=center;fillColor=none;html=1;verticalAlign=middle;whiteSpace=wrap;rounded=0;" vertex="1" parent="8pSg5aJ1G5G2HmFXgLFX-1">
          <mxGeometry x="10" y="448.18181818181824" width="112.93302540415705" height="21.818181818181817" as="geometry" />
        </mxCell>
        <mxCell id="8pSg5aJ1G5G2HmFXgLFX-24" value="" style="endArrow=classic;html=1;rounded=0;entryX=0.012;entryY=0.364;entryDx=0;entryDy=0;entryPerimeter=0;dashed=1;" edge="1" parent="8pSg5aJ1G5G2HmFXgLFX-1" target="8pSg5aJ1G5G2HmFXgLFX-23">
          <mxGeometry width="50" height="50" relative="1" as="geometry">
            <mxPoint x="97.64434180138568" y="528.1818181818182" as="sourcePoint" />
            <mxPoint x="153.07159353348732" y="494" as="targetPoint" />
          </mxGeometry>
        </mxCell>
        <mxCell id="8pSg5aJ1G5G2HmFXgLFX-25" value="Payor info&lt;div&gt;(manual download)&lt;/div&gt;" style="edgeLabel;html=1;align=center;verticalAlign=middle;resizable=0;points=[];" vertex="1" connectable="0" parent="8pSg5aJ1G5G2HmFXgLFX-24">
          <mxGeometry x="-0.2414" y="-3" relative="1" as="geometry">
            <mxPoint as="offset" />
          </mxGeometry>
        </mxCell>
        <mxCell id="j9ZnV7UO3W8cm5q8mVtA-13" value="" style="edgeStyle=orthogonalEdgeStyle;rounded=0;orthogonalLoop=1;jettySize=auto;html=1;entryX=0.5;entryY=0;entryDx=0;entryDy=0;entryPerimeter=0;" edge="1" parent="8pSg5aJ1G5G2HmFXgLFX-1" source="j9ZnV7UO3W8cm5q8mVtA-8" target="j9ZnV7UO3W8cm5q8mVtA-11">
          <mxGeometry relative="1" as="geometry" />
        </mxCell>
        <mxCell id="j9ZnV7UO3W8cm5q8mVtA-8" value="Stage 1" style="outlineConnect=0;dashed=0;verticalLabelPosition=bottom;verticalAlign=top;align=center;html=1;shape=mxgraph.aws3.glue;fillColor=#F58534;gradientColor=none;" vertex="1" parent="8pSg5aJ1G5G2HmFXgLFX-1">
          <mxGeometry x="371" y="110" width="76" height="110" as="geometry" />
        </mxCell>
        <mxCell id="j9ZnV7UO3W8cm5q8mVtA-10" value="" style="endArrow=classic;html=1;rounded=0;" edge="1" parent="8pSg5aJ1G5G2HmFXgLFX-1" source="E1wjB_6haOIm3sgUXWgI-0" target="j9ZnV7UO3W8cm5q8mVtA-8">
          <mxGeometry width="50" height="50" relative="1" as="geometry">
            <mxPoint x="253" y="335" as="sourcePoint" />
            <mxPoint x="314" y="347" as="targetPoint" />
          </mxGeometry>
        </mxCell>
        <mxCell id="j9ZnV7UO3W8cm5q8mVtA-11" value="Stage 2" style="outlineConnect=0;dashed=0;verticalLabelPosition=bottom;verticalAlign=top;align=center;html=1;shape=mxgraph.aws3.glue;fillColor=#F58534;gradientColor=none;" vertex="1" parent="8pSg5aJ1G5G2HmFXgLFX-1">
          <mxGeometry x="446" y="110" width="76" height="110" as="geometry" />
        </mxCell>
        <mxCell id="j9ZnV7UO3W8cm5q8mVtA-12" value="Stage 3" style="outlineConnect=0;dashed=0;verticalLabelPosition=bottom;verticalAlign=top;align=center;html=1;shape=mxgraph.aws3.glue;fillColor=#F58534;gradientColor=none;" vertex="1" parent="8pSg5aJ1G5G2HmFXgLFX-1">
          <mxGeometry x="528" y="110" width="76" height="110" as="geometry" />
        </mxCell>
        <mxCell id="j9ZnV7UO3W8cm5q8mVtA-14" value="" style="edgeStyle=orthogonalEdgeStyle;rounded=0;orthogonalLoop=1;jettySize=auto;html=1;entryX=0.5;entryY=1;entryDx=0;entryDy=0;entryPerimeter=0;exitX=0.5;exitY=1;exitDx=0;exitDy=0;exitPerimeter=0;" edge="1" parent="8pSg5aJ1G5G2HmFXgLFX-1" source="j9ZnV7UO3W8cm5q8mVtA-11" target="j9ZnV7UO3W8cm5q8mVtA-12">
          <mxGeometry relative="1" as="geometry">
            <mxPoint x="419" y="120" as="sourcePoint" />
            <mxPoint x="494" y="120" as="targetPoint" />
            <Array as="points">
              <mxPoint x="484" y="250" />
              <mxPoint x="566" y="250" />
            </Array>
          </mxGeometry>
        </mxCell>
        <mxCell id="j9ZnV7UO3W8cm5q8mVtA-15" value="" style="edgeStyle=orthogonalEdgeStyle;rounded=0;orthogonalLoop=1;jettySize=auto;html=1;exitX=1;exitY=0.65;exitDx=0;exitDy=0;exitPerimeter=0;" edge="1" parent="8pSg5aJ1G5G2HmFXgLFX-1" source="j9ZnV7UO3W8cm5q8mVtA-12" target="j9ZnV7UO3W8cm5q8mVtA-1">
          <mxGeometry relative="1" as="geometry">
            <mxPoint x="494" y="260" as="sourcePoint" />
            <mxPoint x="470" y="360" as="targetPoint" />
            <Array as="points">
              <mxPoint x="604" y="300" />
              <mxPoint x="475" y="300" />
            </Array>
          </mxGeometry>
        </mxCell>
        <mxCell id="j9ZnV7UO3W8cm5q8mVtA-18" value="Data Lake" style="text;strokeColor=none;align=center;fillColor=none;html=1;verticalAlign=middle;whiteSpace=wrap;rounded=0;" vertex="1" parent="8pSg5aJ1G5G2HmFXgLFX-1">
          <mxGeometry x="378.2649422632794" y="40" width="112.93302540415705" height="21.818181818181817" as="geometry" />
        </mxCell>
      </root>
    </mxGraphModel>
  </diagram>
  <diagram id="GPXD29qCVMT8eAYi40JI" name="Option2-Snowflake">
    <mxGraphModel dx="967" dy="584" grid="1" gridSize="10" guides="1" tooltips="1" connect="1" arrows="1" fold="1" page="1" pageScale="1" pageWidth="850" pageHeight="1100" math="0" shadow="0">
      <root>
        <mxCell id="0" />
        <mxCell id="1" parent="0" />
        <mxCell id="VWef2iSKnrzpSpEk25s3-1" value="" style="rounded=0;whiteSpace=wrap;html=1;" parent="1" vertex="1">
          <mxGeometry y="130" width="143.03091738469337" height="470" as="geometry" />
        </mxCell>
        <mxCell id="VWef2iSKnrzpSpEk25s3-2" value="" style="shape=image;aspect=fixed;image=data:image/jpeg,/9j/4AAQSkZJRgABAQAAAQABAAD/2wCEAAMDAwMDAwQEBAQFBQUFBQcHBgYHBwsICQgJCAsRCwwLCwwLEQ8SDw4PEg8bFRMTFRsfGhkaHyYiIiYwLTA+PlQBAwMDAwMDBAQEBAUFBQUFBwcGBgcHCwgJCAkICxELDAsLDAsRDxIPDg8SDxsVExMVGx8aGRofJiIiJjAtMD4+VP/CABEIAMMA7AMBIgACEQEDEQH/xAAdAAACAgMBAQEAAAAAAAAAAAAAAQQFAgMGBwgJ/9oACAEBAAAAAP1PSGZJ4iZkkmsgeDTBpDGFFTapV1bNJrIDFpgCAyjcNXTJEjbOv9iBg8QYskga8+jzpsjbte22AyAxBgxAc9zdjN3yJGWa2SBZMMQYs1iM4bbYSpO/ewHjqN+TwayEJDjchaTJUk5ep29DfYrTFjzZ2LTBiCtp58+B8eeNVuqLD6n6s+m1phQ7KcDECCsgT53KfJvklNrjQOv+jvrUIsCJ0OYxZJRqbCXPleU/FvqUiFpfE8j+oo9MGBYWQwa53j7G4sp8nyf4UNd1VcxC6f8AU5ZYQq/O7GDoOE2W9zPsN/k/wp2FZ2urzfTM/TdZEKvizrPaC8yi7La6n2G/yb4el9kTeb5ev/UoZDgVNPH7a7VNwC2WtzYz5Hk/wt6jPnQN/mXNfqYssYVfWUsHP0idyvIp2dzZTpflHxB6t5h6lTeWet+b/psPXBgVNNGfSdny/IInXFnOn+V/CnV9rXzsPINX6lDjQYFPU6nZ+iU/AI321rPneY/CqfosXyWD0n6lGuHCrqaBi7P0ReaRAsLexm0vx75fhpiQNv0l9l6o0SDVVWgd53eVL5+PZZWk6XI1cpR1vT9nN1x40KvqoQjur8KLj4ZKn2UziK9yd1JVS/a4saBWwMBdJ2jaSgQNOdLLylZ7d0bLBRoUW2i4Sru1AEBkqrktsrdtZvvYNQX0p4gxZJA2GiiqIuci5vcgbDEGDEBkGIa8NuYgbDEGJpA2GIDYkDYYgw//xAAcAQACAgMBAQAAAAAAAAAAAAAABAMFAQIGBwj/2gAKAgIQAxAAAAAAANtGU4pYWgAAAAAAnVtqGFmKdVxdwAAAAAC1oYmYGYpcba7hjJkAAA2jfq1XOz8xtqON/nOy5fs51td4WAAM4nUzrKr7H80Zn1sEL/x73naNpFV/XcN47rmV3ULNyr94+SEbfSzzZ+C/TBhlMys2ZtKOwqELZC0cqvbvlWi6yJ+0j8N+kTDKdjUbxUfT3PNtopWSFs1We1fLlZe6PzzeI/SGdXEbGmnTpuknUsqaJmut8w+6/JxjWxrOt8Q+jpl3K+wp946boVLG75lhNSxTsZEnarOFnq+9ZUeq51I5aHq9JQkhkicrgimxvFLLFJCs1kXc13AAAwwnMvFOs6ZAAAAAAAAAAAAAP//EAE4QAAEDAgIECQYMAgUNAAAAAAEAAgMEEQUSBiExURATFCAiMkFxgTZCYXKRshUwMzRAUmJ0obHB0YLSBxcjJFA1Q0RTY2Rzg5LC4eLw/9oACAEBAAE/Af8AB5a+CPUOkfQnYlKeqxo/Fctqt49ibXTDaGlR1cb9R6J+kSSNibmcbBVFXJUXHVZu/dBiDEGIRrIo3ui1bRuTXBwuPopIAVTOaiT7I6oTWprE1qDVlWVZU27Cuz6JXy2aIx523uTWprEGoNQag1ZVlWRN1fRJncbM53ZfV4JrE1qa1BqDVZWCsrBWHBqWYLjGq4Px0rskbj6ExqaE0IBWTnNjbmeQ0bybKXHMFh+UxGkb/wA5qdpZo00/5Tp/aU3SnRx+zFKXxfb81BiWHVVuIq6eX1JWu/LmkLW3YmS5tR2/G1XyXeQmhNCaFXVsGHUc1VOSI4m3NtvcO9YppzjFY5zaZ3I4tzOv4u/ZVE89S8unlfK7e9xcfx4XIgKix7GcMtyWunjA83Nmb/0m4WienbsWq48Pr42sqJL8VKzqvI12I7Dw2RCcoZc4sdo+Mqeq3vTQmhBY6/D2YXOK+/Jn5WSEdmY2B8Cq7QvEo28fh7mV9O7Wx8bhmt3KppqmkdaoglhP22Fv5rM07CEUVnZe2YX3Ki0fx3E7clw6ocD57m8Wz2vssA0WodF66kq8XrIjXSPEdLTs1gOk6N95Pp2DmOCcFcsObcmkOAI7fiZJY4hd7rI12bqM8SjI6TrJoTQgtNvJqr9eH3wqPEK7D356WolhPblOo94UGnuNxjLMynqB9tlvdTtL8Mm+c6O0cns/VqdpHooTc6LU/tb/ACo6UaNR/J6K0niW/wAq/rBlpx/csHoKfwv7uVV2nWk9YCOWcQ09kLQz8dqwKSSbSTC5JHue91fBdzjcnpbzzCnJ6pndEjcfiKqt4o5I7F3adyu57ruJJ3piYE0Jo4NNvJqr9eH3xwlYnhdRhb445nMJkZm6PsUeHVc9HPWMYOJgNnm+vwHinIrR7ygwn79B73MKcnKm67u7n1tTxLcrT0nfgOBu1Rpqam8Gm3k1V+vD744MJw6mxIyxyVPFS6uKb9ZYhhlZhrrTM6N9Ug6pWmPzuk/4B95YX5J4r6zvyasNwXEMXd/d2Wjvrmd1fDf4LFcI5BWOp452TAAXfssT2d4WAwxR49hWZ/S5bDq/i5rk9Mk4p17XQrYe0lvemua4XBBHMJAFzsCllM0jnnt4G7VGmpqHBpt5NVfrw++FBDLUzxwxC75HWaL2VXQ1dC608RZudtae4qg0imgbxNW3lEJ1G/WA8dvisbnbjldTsoGyTFkGsZbdt+1YLWYbRYdW02IHL/bHPC5ty7UNVvBYppXVVDDFStFNT7NXWI9J7B6AqHBcaxjXBEQw7HvORru7etHxbSLCh/v8PvcwpycnqRRyviddhsqWrbPqOp+7hrn5KZ32tXC1MTU1N4NNvJqr9eH3wmlzXBzSQRsIWH6QVcpFLUQctD9VrdP9j4rG8DoaeFs8LxA572tbE46jmNtXd2qtfHotQNipY888x6U7hquP/tQWJU9PjmDnFWxmCaOMk5tjw3s/lKwjBcKiom1zY/hCXJmy3Gp31QDqB71jGk2LVpfBrpYxqdE24d/Edq0e8oMJ+/Qe9zCnJykT+BpLXAg2IVNMJog/28GJnoRj0nhCYUxNTUFpt5NVfrw++FTsjlnjZLJxbHOAc/6oUmLYbg8ZgwuNsj/OmdrH/t+Se+sxKp18ZUTP8T/4CiqzRM+DccjDonMDmO+U1bjZYlLiWkET+RQnkVO7K1l7OeR22/RUdZW4dOX07nxvGpwtt9DgU6twfSCC2Jx8kqGN1TN/T9isBigjx7Crvu7l0Nh/FzCnJykT+HDX2kczeL8GJjoRn7R5jCoymlNKC028mqv14ffHBhGF/CckmedsMUQBedV7ei/5qTGcOwxnJsLiaSSA6Z3b+rlpj8+g+7/9xWBVElLo7iE8ds8Upc2/c1MxDBdIAGVbRS1WwSdh/i/QrGaGfDKx1NJMJLAOBbudvG9aP+UOE/fofe5jk4p6eU48NEbVUfp1cFczPTu+zr5jCmFNKaU0rTbyZq/Xh98cFl5ze8LSuogqK2AwyMkAg1lpvtJKw+tpYtHcSp3yhssh6DO117fsnJy0f8ocJ+/Q+9zCU4p5T3I8NF86i7+C1wpojDK5ns7uYxyY5NKaVi2HRYvh81HI5zWyW6TdoINwsS0NxygJLIeVR/Xi2+Ldqka6F2SRrmO+q4ZT+PAUU8gbTZUtFW4g/JR001Qf9mwuHt2LRn+j7EYq2mr8SkEHEStkZAw5nEt2ZjsHhwXRKcU5ye5OPMw5t6i/1Wnhq6bj2auuNnMaUxya5NKBQcpIYKhuWWNjxucA781Lo1o/P1sOpr+hgb+SfoToy/8A0K3dI8fqpNEtEKZ8TZKQZpXWY0vkde3iqPANGmxxzU2HUmVzQWP4sG4Pb0lE+C74o7AxWzNGq1xcK6ui5FycU9ye7m4fDxcWY7X/AJcypomT9IdF+9S080PWbq39nC1yY5NcsyxmWSMsfynJGyF5dG2oEDz9sE9a246k+aaSHE61lZUt5PZ0LL2aAImvs5vpvrU1a8R1VQa17KuKctips/RNj0GcX52cdqfjUuHSvgmHGMpZHPqpTrLYX/Jkbzr/AAUMMxrcKkqZZePdT1T3tzmwJynLbcL2WH1DXUcYnxB9IIKOnMAbJkuDHfjPt69VlR19U+MF8j2RTR0XK6wHpMzRD2X7Xdi5fiFzKZ2tm5Vk4s1Wrr24viQ3d27e1F2solFyc5Ocib8ykonPIfILN7G7+e+lgk2xhHDoDszDxXwYz/WOQw9rf84fYjeN5adoQenNiltnY19jcZgDZWYQ4ZR0turaskRkEhYwvAsHWFx4ohhvdo6Wo6tqOUkG2sdvenRQOyXjYcnUu0dHu3LLGGluRtiLEW2riIy7jhEzOBbNlGa3ei5F6c9dOR2VouUcNcR8pr7kcNn+sxfB1RvZ7U3DD50nsCipIIdYbc7z8ZUUwmF9jt6c2SE2eLIPQes6zrMsyY10h9G9AW1KSAP1jUU6kn7C1NoHnrv9ijhZCLNH0J7GvFnC4UlA3bGbegp1PUR+ZfuWa21cYml7+qCVHSuOuTV6EGhosPpRaDtC4qMeY32f4f8A/8QAJRABAAIBAwQCAwEBAAAAAAAAAQARIRAxQSBRYXGBkaHB8LHR/9oACAEBAAE/EMVCs64hUamMTFTExpiYuNRqYrTGhUamLjWmNCoVGrnEOgjpxElEuNv3NjHzagn/ADxr8bUUBW77fcu4zjoI6PQQjOIdBGLax+fBEg3MF38rmXNVMEvNSUfJfqA9icdBHR6CEZiuYc79BGCtBusuRZj/AGPllvE2MSk2nghntN0zjwtncgiE6Co15mL5jXnoIR3lNQHPSm+MvV/2bOJtTDtPDo+Gb9p6Ri+HHQDEZTcR6AYDEzAK5gFO+rKnc9TwMCVViY7qeGeGBARuiSMsWiiJcMOeyGQNkxfMQ89AHmAeYhfM4hz0OPuKokGjEHGIcB2jwJ3ED5ZurG4onwLKA/G3+Exfx39cQDjsJfSjg2dEGJPDLW2mYSwn4vSQjvLagudWJsdhK6gYgVcTMeta4A5U0QMK7VqPLz8IqSbtXymNBgCKzK5gtF96jScOdfcQxMDAOs/jFEw6OYh0gjcSw/cd+gWCxcziGrDYTsTAMNEpjGIVr4OTA3MxNAK8rU/DKhA0n5sEQNr0joYWtEXAXYBtfgzHRsN8okYnuDsYKpDVg1Es1ihG6myUB1IRnENKyL7HL6Jepq4/4kphHwVobE2OnK/sNiv8Awfyvlv2CZVJ3Rz+2fQAmVsqcv8A3jXdvRf4T3bw9+M/ziyoHXV3sXUhn7QXLPVvnUhGViBhhNQcbh/2xbaN02wyipsTASsQ65XCwt4JU4TWoZUZDZI/IBJLYvuBS5tm1n9rslSoEMMEsF3itAgRMysRzUFv+SVBAYWWgSpTUOmVdGBQIndzvXYbm/Xpdc3fh8M/o98UNFmzgofHJ+IRxfAKDLBYNVorPeKlQIkDAwVaFJiJaQ8MQE8cjZAgRMxelAq9gnNYwdg2NGQozGhmJitOQpTGUXvlh+9OLI8OJhvxgvuYHxC42BYc1eNBALsuUdFOeYBaigj1SiAdXLep2xv2CojW4L7DqVKRxmdKJZqvw+yGVhGeD5IVHeVgaUH07w0pcYRmJTEriYrTkqFhRSJsiRrYqkqPI4PP2hsXxrAnche+EUbuNvdvz8ITYcLbE5cj+mOwMAU0204O92Ie2fi09L1gmH9GExoVFRGEdylMrokZFj2ZyOcDskajUuX+iGm7SW04RYIrNOWG5p3Zux5pKzh720r6jJ3Bbx/gfAQmytYBcbxpMJkiqYIQS3c6HHCLXK3hTfBPpi26Ga3RzLWZU+NO9N9SOOPDFMh0Iqe1T2aN4w/ZDoBmxNqPDryFzDdDXwB3UozSZRXSl5PLjRpExQiyzcIkVgJBfCwxdtLKjcOx3Ex/rw6FoLGlm0I3lH7Gi190H4h0HfxNibE2or0SbQwjsM/DAAhoyIgpzTE1RsvBJX2uDFaP5/ZquJv6mkydCC/Bf6NEIJYjcdBgyu62nxPiCjtNq4TNmLjEBmjKKU2d6SUPHbLTy4Pq4tG91/RRhnbMwlsw2wHdamRF7APe18sMxgk/vhni0vxHxj8Snjmb2NB2fE+Ieop1wj5cEfUrEG08r7nJERRERpHSpQ6G1Layy/lmSXBPhn1aKLfbrH3WPXHK7anOxbgWDl2I4DaSgsCFlqmCOmNVtkYgjoKO8pvLqCqsqVNotLWb1wiTFQ5iCuD0fcQz+HMWQ3uVVvKazDxmEn8LeEIgiU4xQf1Tpe+nm+B24gvg2DB8rCXfmxInJqKi2240fCmLpLzg1YfwxDzFEIyQ8r7gVHO4CobTlvxllh3UqoFNqq5gtcqlWSedmPfX01WVccsWUMrz4hGcQ50SyNLdeTD+Jvj12/2NlgfBOcfhFiNUYTzNkdZVHJd0wQFFZRVys94oaZLE8G4Ivc0LQ0Nh7hLVCCCCw3A+Z3n+ww8z8JWg1AaFVSclQ2MExHYUup5ZVzNzMMlJwQjQxLHCD2T5SHOHyf1G1V6/Yxw+Q7AhHecQ6CMdpVjSY4Phl5q/D6ZXWZ5YB5lF3lYyarZvAEBQSyR/ExTkHtIrYB2Nv2zFXe7uvt0eghGcQ6COnESl7CRSpfsJvyPfOXdWHziexEAynBKpKdm8KgAcdBHR6CEZTUBz0BEZTiU10bCPsuCLAfWUGxEZTXQDEZTcR6AYDEzOIdBHTjp5jGcdBHR6CEZ//8QAOREAAgEDAgMEBQoHAQAAAAAAAQIDAAQREjEFIUEQIjJhBhMUIFEVMDVCcXJ0gbGyIzRAUmKRodH/2gAIAQIBAT8A9xEdzhVJoWU+MnA/Ont5k3GR5fOQQmZ8bKNzQKRDSgwBTS0ZakVX5jf5uLEMIHU8zTyZ60XJ61rNaqJyaAJrBG499BqdR51I29YaR1VVLMxAUDck1Z+g19Moa5njgyPCBrYfoKT0BsgO/dzE+QAqT0BtCP4d5Kv3lDf+VxP0S4hw+J5kZJ40BLFeTADrg0DStUkeBqXb3QCTgUkMikMRipDvXDohccRtItTJrnjXUu4ywGRQHpDactNvfIOQYkwyfnutfKXEl5NwifP+MsZH618ocVbwcJcffnRf0zV9Bxu9tLj2iWG2hEMhZIsu7ADOCzcgOxTUZBGDtTLpYjtjRpHCruait0gTlzJ3NTGn3rg30xYfiov3Cp547aJpJM6VxnAzTXmu6s0hkVoplkJI5+EcqivgDdmYoiQy6QduWAaup4peHzsjZD28hHLHIqe2PpU0cjPlVJHbw+MYZyPIU21TU+9cG+mOH/iov3CryW8gb1kSRyRBe+pOlh5gnlQmsHlhubKJvaJGdVjPdTOO8T9nlXrbBDJdzxSNMZtLQnmqOB06Uxu3sbxp1iRTA5RE5kYU7ntj6VCNqntkmXbDdDRBUkHcVY/y6/aeyUVIK4N9MWH4qL9wriMFuyia6kf1MY5xjwk+YFSOb6e3t3tfUQMrmI7SAoNxjw1HMbUXNv7LrtYpNDFeZHIHLDrvvXs8UXDrl4JXMUlu7Iuche6duwVGNqhHZfKBPkfWUGuHyjDRnfcdkigipF3qwlS14jaTSZ0RTxu2BnkrZNWt9ZXyB7eeOUeR/UbiprZZLmCcsQYg4A+OqobZIZJ3Uk+uk1ny5YrjHErCys51mnjV2hdVTdiWGBgCgKQVEu1IMChvV+QZgPgopHaNgynBFQ3UUo3APwo8xUiZp4zUdk7IkiyBc7H4HUBio340gxBfT520iRhsOnx3qV+ITp3+IXMpHiy7sD3ivIflTcJkDkesTZevUilQmkjqNAAOyWVIV1MakcyOWPXtWaVPC7Cvarj+81FIk6DmA3UU0bUYz8TQjIIIJFO+g4BOetRvE25CmnuYkXCd40t5cL9Yf6o3twR4gPsFMzOcsST73PoaS6lXc6h50LxDun/ae5ZhgDT/AE//xAA9EQACAQMDAQUFAwgLAAAAAAABAgMABBEFITESBhBBYXETFCIyUSB0sgcwNkJigaGxFRcjQENScnOR0eH/2gAIAQMBAT8A+xJJHEMuwUedHUrbw6j6LUd5BJwcev5y7uRbR55Y/KKxLO/W5yTSQClgAqFmTYnI/NzE3FwzeA2X0FRxcUsWBQj8qKClGBRdR40GB4P25SVjYjwFRR+VFo4YmkdgiIpZmPAA3JNaj+VfSbeRksLWW76Tj2jH2SH02Jr+tjU3b4NPtlHmzNVv+VC+JHtNPgYfsuV/nmtI7c6XqkyQSI9tK5AUNupJ4GRXSDTqBuKimyelufA/ZJCjJOBUtzE6sqnJNRLxWuTm00PUZwiSGK0mfocZVulScEfQ0D2Ovz1lrzTJDyoQXMQ9OHFR6PoTbx9orUj9uCZD+E1Dpmhp8+uxN/tW8rfzC1pdzoFheWxtYZ7uYzIFknwiIScZVEJJPc42qXY5qNutAe+WVIY2d+BU11LcyZY4XwUVBwKiFdqf0a1f7hcfgNWttNeTpBF0l3z0gsFBI8MmodNMdjqMlxG8c9s0IUHb5yc5H7qGnFVsRAryPPB1sOd8kVYxPFqFsjjDLcxgjnhh3EZqQc1BNGiBWYA5oEEZHdq02WSIcAdRpeat+BUVdqf0a1f7hcfgNabBpt0DDcSywzMwEcgXqT0IG9e76tFDdWWqXCe6QLG8ko/tJMZyqg87+fFRxam4hsoJoktxbhknAId4idsjnx4FW4tF1CySBpXK3EfW77ZPUOF7ialPNXJ2q1vJbZucp4rSOHVWHBGRWp597f0X+VDmrdtqibiu1Bz2a1f7hcfgNaRdXkTmCxhi95mOFmPzqoG+Cdh5moIk0y1u7yK+F1dRNGs6jLQsJScq2fn45o2y3ful176Y7yeLrAc9KncjCHgeQqG4mm1KzWeNRKlxGHbGGb4hz3OdqlNTt3aW5a26f8rEVq0PxLKP9J7oXwRULitYt5r/AEXULWEAyT2k0aAnA6mUgVf6TqelSmO8tZoGB/XXAPoeDVvePFZ3NqEBW4aJifp7PP8A3XvclyltGwAFvF7MY+mc712e0nUr+9tngtpHRJUZnIwoCnJyTRNSOMVNIACakbqPdpSkW7H6uakjWVGRhkEVc2U1uScdS/UUCQahlqOXOKm1eJZJYXhZ+jlTjdeksTv6YqVey0rE3Ol2nScHrMKNyTjOBkHYk/QVAukWkp6dIsoRk+zAiRW2RX3YgAHeou0luYgTC43fACn5VOKaSpJed6mlzXNQwSTuFQZPj5VDEsMaoOAO97aCT5o1P7qFjaj/AAxUsUls/BK52NJIh+LpXJ5OOaDrv8K7nJ25JGM0XUg5UHPORUcQmG6jpHH/AJUsU67BS3pSWc8x+P4FptNtG/VP/NLptopz0k+ppI0jXpRQo8vtEAjBFPYQOcqCh8q/o9wdpf4VHZKhy7Fv4CgABgf3b//Z;" parent="1" vertex="1">
          <mxGeometry x="5.3300050684237155" y="294.9272727272727" width="132.37090724784593" height="109.37658388241256" as="geometry" />
        </mxCell>
        <mxCell id="VWef2iSKnrzpSpEk25s3-3" value="S3 bucket" style="sketch=0;points=[[0,0,0],[0.25,0,0],[0.5,0,0],[0.75,0,0],[1,0,0],[0,1,0],[0.25,1,0],[0.5,1,0],[0.75,1,0],[1,1,0],[0,0.25,0],[0,0.5,0],[0,0.75,0],[1,0.25,0],[1,0.5,0],[1,0.75,0]];outlineConnect=0;fontColor=#232F3E;fillColor=#7AA116;strokeColor=#ffffff;dashed=0;verticalLabelPosition=bottom;verticalAlign=top;align=center;html=1;fontSize=12;fontStyle=0;aspect=fixed;shape=mxgraph.aws4.resourceIcon;resIcon=mxgraph.aws4.s3;" parent="1" vertex="1">
          <mxGeometry x="243.14991383679677" y="346.37363636363636" width="65.62595032944755" height="65.62595032944755" as="geometry" />
        </mxCell>
        <mxCell id="VWef2iSKnrzpSpEk25s3-4" value="Payor websites" style="sketch=0;pointerEvents=1;shadow=0;dashed=0;html=1;strokeColor=none;fillColor=#505050;labelPosition=center;verticalLabelPosition=bottom;verticalAlign=top;outlineConnect=0;align=center;shape=mxgraph.office.concepts.website;" parent="1" vertex="1">
          <mxGeometry x="46.695387734414595" y="465.8363636363636" width="49.64014191586417" height="41.872727272727275" as="geometry" />
        </mxCell>
        <mxCell id="VWef2iSKnrzpSpEk25s3-5" value="On-premise SQL database" style="sketch=0;pointerEvents=1;shadow=0;dashed=0;html=1;strokeColor=none;fillColor=#505050;labelPosition=center;verticalLabelPosition=bottom;verticalAlign=top;outlineConnect=0;align=center;shape=mxgraph.office.servers.sql_server;" parent="1" vertex="1">
          <mxGeometry x="53.426254434870756" y="218.0181818181818" width="36.178408514951855" height="47.85454545454545" as="geometry" />
        </mxCell>
        <mxCell id="VWef2iSKnrzpSpEk25s3-6" value="&lt;font style=&quot;font-size: 11px;&quot;&gt;Auto download&amp;nbsp;&lt;/font&gt;&lt;div style=&quot;font-size: 11px;&quot;&gt;&lt;font style=&quot;font-size: 11px;&quot;&gt;using API if possible&lt;/font&gt;&lt;/div&gt;" style="aspect=fixed;sketch=0;html=1;dashed=0;whitespace=wrap;verticalLabelPosition=bottom;verticalAlign=top;fillColor=#2875E2;strokeColor=#ffffff;points=[[0.005,0.63,0],[0.1,0.2,0],[0.9,0.2,0],[0.5,0,0],[0.995,0.63,0],[0.72,0.99,0],[0.5,1,0],[0.28,0.99,0]];shape=mxgraph.kubernetes.icon2;kubernetesLabel=1;prIcon=api" parent="1" vertex="1">
          <mxGeometry x="165.32691332995438" y="406.0181818181818" width="42.06791687785098" height="40.38520020273695" as="geometry" />
        </mxCell>
        <mxCell id="VWef2iSKnrzpSpEk25s3-7" value="" style="endArrow=classic;html=1;rounded=0;entryX=0.005;entryY=0.63;entryDx=0;entryDy=0;entryPerimeter=0;" parent="1" target="VWef2iSKnrzpSpEk25s3-6" edge="1">
          <mxGeometry width="50" height="50" relative="1" as="geometry">
            <mxPoint x="98.0182463253928" y="471.8181818181818" as="sourcePoint" />
            <mxPoint x="148.49974657881398" y="454.7272727272727" as="targetPoint" />
          </mxGeometry>
        </mxCell>
        <mxCell id="VWef2iSKnrzpSpEk25s3-8" value="Payor info" style="edgeLabel;html=1;align=center;verticalAlign=middle;resizable=0;points=[];" parent="VWef2iSKnrzpSpEk25s3-7" vertex="1" connectable="0">
          <mxGeometry x="-0.2414" y="-3" relative="1" as="geometry">
            <mxPoint as="offset" />
          </mxGeometry>
        </mxCell>
        <mxCell id="VWef2iSKnrzpSpEk25s3-9" value="" style="endArrow=classic;html=1;rounded=0;exitX=0.9;exitY=0.2;exitDx=0;exitDy=0;exitPerimeter=0;entryX=0;entryY=1;entryDx=0;entryDy=0;entryPerimeter=0;" parent="1" source="VWef2iSKnrzpSpEk25s3-6" target="VWef2iSKnrzpSpEk25s3-3" edge="1">
          <mxGeometry width="50" height="50" relative="1" as="geometry">
            <mxPoint x="182.15408008109478" y="429.09090909090907" as="sourcePoint" />
            <mxPoint x="291.5306639635074" y="360.7272727272727" as="targetPoint" />
          </mxGeometry>
        </mxCell>
        <mxCell id="VWef2iSKnrzpSpEk25s3-10" value="Source systems" style="text;strokeColor=none;align=center;fillColor=none;html=1;verticalAlign=middle;whiteSpace=wrap;rounded=0;" parent="1" vertex="1">
          <mxGeometry x="2.9447541814495692" y="130" width="137.14140902179423" height="25.636363636363637" as="geometry" />
        </mxCell>
        <mxCell id="VWef2iSKnrzpSpEk25s3-11" value="AWS Glue&lt;div&gt;(ETL)&lt;/div&gt;" style="outlineConnect=0;dashed=0;verticalLabelPosition=bottom;verticalAlign=top;align=center;html=1;shape=mxgraph.aws3.glue;fillColor=#F58534;gradientColor=none;" parent="1" vertex="1">
          <mxGeometry x="173.74049670552458" y="218.0181818181818" width="69.41206284845413" height="94" as="geometry" />
        </mxCell>
        <mxCell id="VWef2iSKnrzpSpEk25s3-12" value="" style="endArrow=classic;html=1;rounded=0;exitX=1;exitY=0.5;exitDx=0;exitDy=0;exitPerimeter=0;" parent="1" source="VWef2iSKnrzpSpEk25s3-11" target="DIP0iojW-KON-3yBLBze-1" edge="1">
          <mxGeometry width="50" height="50" relative="1" as="geometry">
            <mxPoint x="342.01216421692857" y="386.3636363636363" as="sourcePoint" />
            <mxPoint x="468.2159148504815" y="283.8181818181818" as="targetPoint" />
          </mxGeometry>
        </mxCell>
        <mxCell id="VWef2iSKnrzpSpEk25s3-13" value="" style="endArrow=classic;html=1;rounded=0;entryX=0;entryY=0.5;entryDx=0;entryDy=0;entryPerimeter=0;" parent="1" source="VWef2iSKnrzpSpEk25s3-5" target="VWef2iSKnrzpSpEk25s3-11" edge="1">
          <mxGeometry width="50" height="50" relative="1" as="geometry">
            <mxPoint x="81.19107957425241" y="241.09090909090907" as="sourcePoint" />
            <mxPoint x="123.2589964521034" y="198.36363636363635" as="targetPoint" />
          </mxGeometry>
        </mxCell>
        <mxCell id="VWef2iSKnrzpSpEk25s3-14" value="" style="endArrow=classic;html=1;rounded=0;entryX=0;entryY=0.5;entryDx=0;entryDy=0;entryPerimeter=0;" parent="1" edge="1">
          <mxGeometry width="50" height="50" relative="1" as="geometry">
            <mxPoint x="89.60466294982261" y="335.0909090909091" as="sourcePoint" />
            <mxPoint x="182.15408008109478" y="273.5636363636363" as="targetPoint" />
          </mxGeometry>
        </mxCell>
        <mxCell id="VWef2iSKnrzpSpEk25s3-16" value="Users" style="sketch=0;outlineConnect=0;fontColor=#232F3E;gradientColor=none;strokeColor=#232F3E;fillColor=#ffffff;dashed=0;verticalLabelPosition=bottom;verticalAlign=top;align=center;html=1;fontSize=12;fontStyle=0;aspect=fixed;shape=mxgraph.aws4.resourceIcon;resIcon=mxgraph.aws4.users;" parent="1" vertex="1">
          <mxGeometry x="779.5184997465789" y="257.3272727272727" width="50.48150025342119" height="50.48150025342119" as="geometry" />
        </mxCell>
        <mxCell id="VWef2iSKnrzpSpEk25s3-19" value="&lt;span style=&quot;text-wrap: nowrap;&quot;&gt;EMR Data (Athena)&lt;/span&gt;" style="text;strokeColor=none;align=center;fillColor=none;html=1;verticalAlign=middle;whiteSpace=wrap;rounded=0;" parent="1" vertex="1">
          <mxGeometry y="386.3636363636363" width="137.14140902179423" height="25.636363636363637" as="geometry" />
        </mxCell>
        <mxCell id="VWef2iSKnrzpSpEk25s3-20" value="" style="image;aspect=fixed;html=1;points=[];align=center;fontSize=12;image=img/lib/azure2/identity/Users.svg;" parent="1" vertex="1">
          <mxGeometry x="215.80841358337557" y="523.090909090909" width="36.153167764825135" height="39.54384186517993" as="geometry" />
        </mxCell>
        <mxCell id="VWef2iSKnrzpSpEk25s3-21" value="" style="endArrow=classic;html=1;rounded=0;entryX=0.012;entryY=0.364;entryDx=0;entryDy=0;entryPerimeter=0;dashed=1;" parent="1" target="VWef2iSKnrzpSpEk25s3-20" edge="1">
          <mxGeometry width="50" height="50" relative="1" as="geometry">
            <mxPoint x="106.431829700963" y="480.3636363636363" as="sourcePoint" />
            <mxPoint x="173.74049670552458" y="440.2" as="targetPoint" />
          </mxGeometry>
        </mxCell>
        <mxCell id="VWef2iSKnrzpSpEk25s3-22" value="Payor info&lt;div&gt;(manual download)&lt;/div&gt;" style="edgeLabel;html=1;align=center;verticalAlign=middle;resizable=0;points=[];" parent="VWef2iSKnrzpSpEk25s3-21" vertex="1" connectable="0">
          <mxGeometry x="-0.2414" y="-3" relative="1" as="geometry">
            <mxPoint as="offset" />
          </mxGeometry>
        </mxCell>
        <mxCell id="VWef2iSKnrzpSpEk25s3-23" value="" style="endArrow=classic;html=1;rounded=0;entryX=0.5;entryY=1;entryDx=0;entryDy=0;entryPerimeter=0;dashed=1;" parent="1" source="VWef2iSKnrzpSpEk25s3-20" target="VWef2iSKnrzpSpEk25s3-3" edge="1">
          <mxGeometry width="50" height="50" relative="1" as="geometry">
            <mxPoint x="114.8454130765332" y="488.9090909090909" as="sourcePoint" />
            <mxPoint x="182.9954384186518" y="520.5272727272727" as="targetPoint" />
          </mxGeometry>
        </mxCell>
        <mxCell id="VWef2iSKnrzpSpEk25s3-24" value="Payor info&lt;div&gt;(manual upload)&lt;/div&gt;" style="edgeLabel;html=1;align=center;verticalAlign=middle;resizable=0;points=[];" parent="VWef2iSKnrzpSpEk25s3-23" vertex="1" connectable="0">
          <mxGeometry x="-0.2414" y="-3" relative="1" as="geometry">
            <mxPoint as="offset" />
          </mxGeometry>
        </mxCell>
        <mxCell id="DIP0iojW-KON-3yBLBze-26" value="" style="shape=image;aspect=fixed;image=data:image/jpeg,/9j/4AAQSkZJRgABAQAAAQABAAD/2wCEAAMDAwMDAwQEBAQFBQUFBQcHBgYHBwsICQgJCAsRCwwLCwwLEQ8SDw4PEg8bFRMTFRsfGhkaHyYiIiYwLTA+PlQBAwMDAwMDBAQEBAUFBQUFBwcGBgcHCwgJCAkICxELDAsLDAsRDxIPDg8SDxsVExMVGx8aGRofJiIiJjAtMD4+VP/CABEIAIQA7AMBIgACEQEDEQH/xAAdAAEBAAMBAQEBAQAAAAAAAAAAAQIHCAYFBAMJ/9oACAEBAAAAAP8AU5BkYi1IWmJUzkGRiLUhaYlLIMjEWpC0xKRBlLiLYhS4lTJirIxS2xjZkXCzJLPyeC9T9L9xiLUhkMSmXmdYer/bz90r6m/xzLfgfda/+r60uBR575X5vUa99R7HLiztHHV3ld+8Y+/6K0J6vaXPW+/26E9LtXwmXufz6K2Np/1H3dVdT858hdY9L/5//X7q4y2H+P6/qtfc+dJ7S5d/N3DxI7Yy17zR0bnyN2d7RoTfLmb4fW2n9Fdb6s9R6vkfpb3vHGxug+Uve7wzmsdfbI+Rt8xFqQtMSiT5v7/6UxFqQtMSmUxVkYpbYxsyphZklkLTEWpC0xKZSFpiLUhkMSlkGRiLUhaYlEhaYi1IWmJT/8QAGwEBAAMBAQEBAAAAAAAAAAAAAAMEBQIGAQf/2gAKAgIQAxAAAAAAAAAAAAAAAcffvzoAAAIe/M7/ALXxcN+eKrYswfeY+7EFexDJZhglPvXmf0P0XgbNXTz8vQ38bG07daGW5Vy9DazM29x3Qt9WO6cUgAAAAAAAAAAAAAAAAAAf/8QALRAAAQQBAwMDAwMFAAAAAAAABAIDBQYBAAcTEBEVEhQhFiA2JEBgJzAxNXD/2gAIAQEAAQwB/gXz0+fu+dfP3fPT5/gqXWlrUhK05VYZ0aKAL4yhsGhyUef6valsEZ9wxl/LGHUcv7k2THj/AEcyXs6Cmg2ZeTeUkj0yQrdhhCUsIShyRk42vMtuOsudmbTGN3EqRy2ZxRMsNMi5IHS8lHTK04VhPfHf7ZCTjoljD55bArXfvjpaJz6agTZX2/PqDk/Mw0fI8XF/c9+15Px/pXyBDENS0o+tPZuzkEBwRj7C1NuBZWsMda+/qYjTk3MuQy3+mi5hqVfkmkNLRnoYn+uEf8dbBc63V/QmUOS05G7l1CYkAgAS3Hn9b54708XGh916E8QkZMtjGUqStOFJzjON0vwCa1R/wyv6ypKU5UrOMYd3VobJftsyycqHIYKZbfYcQ61qW3MpUKYoQqTxzV+5QFnKLYjHlvZ1BWSGsrDz8WRl9sSxwx0wZEDkeszTiORtaO6k6+nF+f8AT7uV4RpAAkg2KZfcU/PVtEdEEk4PMe0BVkcYhHkTtSBcbLyLkAk8wY2t1l3MhMqcOmGU6se3AVllFyDsrJjKIoQbe4wsB5OQ4oDbMGvy48k3LSb69U+PBn9yraTKtoIfnwggt4KngYdlnpvp+GjZ1b6zW10yQ9YIrGNpCSSaJHc2c51ul+ATWqP+GV/W7ZRItGP4e+NQUDas1dgUSr1x8XbSDnq5XVR0vhGF2MggSuy5A+cpe2fgIJ2qJOWMw+VtqwyNeLwyw2lppP8AnWx3+gl9VH53cuPWbk5eO4fYQzklqIm7Aza7E+1XHXn3H2pCvLdnBvHNyx8pFhC+Ih1Smhpu0I3GPLTV1rNgzpaQCy7JReYx7o9UiXb+PZfdN4a6WTbhuWmPNRcmRESMNtvKjWQKcl7G7JPau1TRcodEeopQundrJ+TQgaYuRxYUbHBxAA4IbWGh9xxCjqTLDCsOvvU5h8WpwjD7S2nZKNDlwCATGuVhrbO1RKfbQtxKGCrUK/AxKA35B+QdUnC05SrGFYc2sPjS33a1ZColmk0Z2pkSRZEo5IE6ztzJRciYVWrE9Et0+kC1TJhCi3jj+sbCPg2Gbk1uoUncDzvgpb04B8bA/UPHjyWAOJiuvs3Yyfy+jLX7swMU8ZwYplDzKU4QnCcY7Y/5f//EADoQAAIBAgQDBQYDBgcAAAAAAAECAxESAAQTIRAxUQUUIkFhFSMyUnGzILGyM0BCcJGSMDRigYKh0f/aAAgBAQANPwH+TCUuUHcV64SAtFC7i4ny8Na4QC/SkD2160wFuMdwuA606fvT1ppxl+XWmJtG0CFifCvmPLGZhZEeWO0rv5+eJWs9xAXOwrvbiTs6OIL3Z76hq7rzpgOyUljMbVHo3E8hXf8AEWtvmcItedKn6ccsEOndZde4Tnv1xm8tHNp1utvFaV/xO7a938NLrafXE5i0zXnaKHCBbXHMeIYaFCT60w/ZsUSvcN3DVIpjIZw5Zi1PEQAaj034+x2/S3F1uWJVLuR1ovIfXGcJCe5YAEVNGJ5cuHtNPtPjYXtE6p/cRgioI8xi2D7y49mZb9GACSSaUxWl6xOyf3AYkUMjoblYHkQRwRrXEaNIFPQldq4yoQu2mVUhzQWk8+XCGXSdrGTxUrTxAdcZNbp47GFo+pFDz4MpFVNCK9D1x7O/zHeXrfqfBf8A90xkoo0mrWo1F8JuPM4jC+CR6qfFTfFIpLLxb1p9MRQpmn7szRMIyaDx+teWIO1vd+/ZBmFUA3v89fM8GjRNOB1VPB9RiXIGY5i8a1Qp2rTltiEPSOaRShvW3eg4ZScjLxyi4KBIUrQ/KFAGJIS76aBLj7wVNOHtNPtPjLZB5YXSJUMbotVoR1OI3nijJ+RJCF/pi2D7y49mZb9GJZIYpCPkZt/68sZrLBteSYmWXUHxlvm/LEeakaAJJqUjeh/OuIchmHjI8mVDQ4zGYmWd5EDkWNQJvyFN8R5hVRFFFUCV9gOHtQ/aXGgP1Lxe7UtmWLTpy+LnXE4yuvlxmUXQtXw+LzuwVJzETzfswrbVdcGi2LmUgsQLs1X54fseJHyXfovBHftJqcjXpjVZRAZ1n8I5Ncm2/GLJGDQsNxJBFbv9+J/aTRCqvtTcAjfrjJ101MNNqEUqWO3i4JmFmVwgfdQVoR03wCC0CoRWnqzNjLxhI0HkBiRYbI41uZqSqdhiLs+BHjcUZWC8jieMpInp/wC9MXG2J4ySlelGp+WNSR5MzN8TGQ16nbBBBB3Bridqtl7S6j6UYcvKuO0LNV2js+Ek15tUm7hnGuly5gWdK/6a4zzXZnNy7Ft60A8h+DtHu9qAbppLTfHdhfW/vHrT+HGhHo931Lv+d/pifs2PKiG03Aowa6v75IKPG4qrD1GAKAfT+WH/xAAjEAEAAgIBBAMBAQEAAAAAAAABABEhMUEQUWFxIIGRofCx/9oACAEBAAE/EOOYc7n7P2fsPuP3O25xzP2fs/Z+znmP3H7nHM/Z+z9h9x+5zzH7n7P2fsPuH3HfMzXMLp3MzMbhcb8zONzNcxuZmYXM3zG/Mb8zNczMzMwvzG/MzfMb8zMzMwvzC/MbvmZrmF53MzMbhcfaZxuacxuZmYXM3zH2j7TNczMzMwvzH2mb5j7TMzMwvzC/MbvmcQ+BHpx8eYxnHwI9H4EIy8cwd7l+5fuL7g+4vuXrcvHMX3L9z9g+5eeYvuL7l45n7L9z9g+4vuXnmL7n7L9z9g+4PuLnmYrTCqZhEMlpWU2XFlMOX+Mhh4aEdicrV01BQJyI1oe4nmNTGNzFafjzpjXZjU409MdCo12Zi9Ma7PwIR3M1pjhoep8b7G5bFqLNw1ZhbA2lFBFUMQm8gGSlicEGWPyZ8007WJlicvLurOGZxhma0xKEVqLHgmfM/YX5i55jdaYcXpbmIKgqJqFBNOSfsFRH87C1qS+tcX1y6hfmL7l55ivZ6XP2D7g+43fMxUrOU439dlBu0uKl7A1HJ94dhNRfEjtqKrAShnZD5kjjoUQ+16hwQLNRb+P/AD5SDjo/mFI7VyVOGDcRYP0FLVLqKVtmlBO3XWcE8sOa5QRCxE2PQ7/rdkJS4AALVXQR6dXfQrRPJAYj9B3YBGNVLv8AY/exmjkir5uuC0aLAW0RjhVVyXRjiHcD0+yGpoaenLk+VlWGhwzDtDKg8H4xZvAmu+DpzKxSs8NeGACIZi5uAY6jj+j5wpSLKGRLADj2hnxykZVSLUAoQXLDeqOcI1xl4OtrevKgw3DL28qz3izSvutCrIyW0TggaHEXMs4TbFE0JzEbm+FYetDolz/zYRMZbDh6+qigeHxWv55MQOgQKmwKzjfjrZUHkgndafR6ujAf7fl8JommYkuprudh6dtczVeNH4c6uxlsWl4KWZXNiU7myd/oGaGM17XMEa8vqDBjIplSmZiTX1STVpPRLcbltcwzI7e3HqrrGDOkKoupGYQ0ymjdq6OnQKaJmuZXzvZbs0tEtYHD8eO9KM150e8tyrtXKy7207nAIuptJWJukhalgUtZsTIHKNMYLLCo7RF+CC3myL69qDQKwr5jUBSI7GV6ofsYWDpQpGcC95fyZOSstjkunW+Syt4hPmjlNEV5FXKrGWVqYpxCAsHSydndxVKK7lFn7tRKq+SlZ4OFVDA3Ynor0jUU7SzGJZWoviX4l+IPiXnUU7RTtLK1L8QfEvxBO0U7Sy9RTtL8S/EvxB8QTtFL1OIdKFD+3F0myBCGBgAUBCPTj48xjOPgR6PwIRmK1/YVTjq+oeo12/sxRj+zFa/sfU+uh6jV6jXb+xqtTFa6fXQrtGu0avUa7f3p9dCu0K7R3qcQ+BHpx8eYxnHwI9H4EIyytQrOOrUKinaWYxLK1GpjoVMXqKdop2mK10x0E7RTtLL1FO3THQrtCu0avU41DnHV9Q9R9Tticaj6n10PU51H1H1ONdProeo+pzqPrp9dD1D1HepxD4EenHx5jGcfAj0fgQjP/8QAMBEAAgIBAgUBBQgDAAAAAAAAAQIDEQQAEgUTITFBFBAVIiNxBjBAQlBRYWKBkaH/2gAIAQIBAT8A/Hx/OICdbNf9rVN2r73IjyJIXWCRY5PDsm8D/AI1wZuI8H4fmZeXKGjglzpuUIdjGpnfdZbsw6gaw54Hhd3VreK+rVd+O3fTja5G0r+wJvWLjDJ53xbeXC8na72+PYuFmPFzVx5SlE7gpIod+usHGGXmQwFiodqsanxsnGIE0Tx323KRejBH7rWevmHJZL/gKDqHHyMjdyYnk2jrtUmtdRdiiNNh5iRc1seVUq9xUgVoI5RnCkqtWQOgvtp0eMgOpUkA9RXQ6Wc46sRdEUaFn/Q1xPh8HH8SWMxbp+XMkJIdQC1qNcA+z0GJjSGBEjIiDH5osutDqHOsmWSWU76sUOhsdBXfXD+LTwJLG8+1RjOsYr83jWRkz5T75n3tVaGbiM5yPUlB6QxCCm6HZtoV0rXDZo8fPx5ZDSI4LHvQ1lzQJgnGXI9QzTiTdRAQAV58nRZfcyLY3erY15rYNcOzIEwjA0kcUgn5m5wxVhX9PI1kTiXNeY7WuTcdo2g/QHWVmYjJxCVcsyHJVdkRVrX4g1Hx01hyweky8aSQRmbllWIJFoT0NfXXEp4sjJBiJZEijQNVXsUC/ZilMWVGC2A+4j6mzoTOrSFaUSKVIA8H9a//xAAuEQACAgEDAwIEBQUAAAAAAAABAgMRBAASIQUTMRQiECNhcQYVMEBRQUJQkdH/2gAIAQMBAT8A/fzSLAjPJ7QFs39r0rowBDAg+CD+rHJBHKhnUul0VDbSSfHNHXUocDrefiYWNHT5CYcHcaXeo3RqlUFHK+CddRxspJ4kidAsc4FCMmqBF2CONJu2DcwY1yQK1kT9jtcXvlVPtfwbKxlk2GVA11tvm9Zk5xcaSYAHYLo6inhnB2OrV5o3WhNJ69or9ggDV9S1alnhhruSIl+NxA0DehlYzSCMTIXJraDzouoZVJG5roXya0rq4JUggGuNJ0s9VyIYF7e/da75FiXgXyzlQNT42X+COo4UqTp6Nx0+WdUngmdi8ayuAqkkLZO0+K11zr+TnZCHId5PmEL8vwrc/wBo1EF2Ar4PPgjWZ06GVo3WIFjOpc/T+uoYIoE2xrtF3r0uQoEXYDfP392x4u/vrOiebDmjQWzJQF6xopmyhMYRCBFsqxbG/poK35mzVx6dRf13nWZiSPld3ttKhi2UrAEf7/nUMPbxViW1pKFmyNY+NkK+IjY4TsE7pARR4rjWUkoyMedE3iMOCoNH3V/zWFE8MJDimZ2avNbj8M/LyOouJJ2BcQRQggBfbCgjQcfwF00asFB52mx9/wDNf//Z;imageBorder=default;" parent="1" vertex="1">
          <mxGeometry x="644.9011657374556" y="199.99727272727273" width="88.74647744551444" height="49.64014191586417" as="geometry" />
        </mxCell>
        <mxCell id="DIP0iojW-KON-3yBLBze-27" value="AWS Glue&lt;div&gt;(ETL)&lt;/div&gt;" style="outlineConnect=0;dashed=0;verticalLabelPosition=bottom;verticalAlign=top;align=center;html=1;shape=mxgraph.aws3.glue;fillColor=#F58534;gradientColor=none;" parent="1" vertex="1">
          <mxGeometry x="356.00008109477955" y="326.0009090909091" width="69.41206284845413" height="94" as="geometry" />
        </mxCell>
        <mxCell id="DIP0iojW-KON-3yBLBze-28" value="" style="endArrow=classic;html=1;rounded=0;" parent="1" source="VWef2iSKnrzpSpEk25s3-3" target="DIP0iojW-KON-3yBLBze-27" edge="1">
          <mxGeometry width="50" height="50" relative="1" as="geometry">
            <mxPoint x="211.60162189559048" y="423.10909090909087" as="sourcePoint" />
            <mxPoint x="274.7034972123669" y="414.5636363636363" as="targetPoint" />
          </mxGeometry>
        </mxCell>
        <mxCell id="DIP0iojW-KON-3yBLBze-29" value="" style="endArrow=classic;html=1;rounded=0;" parent="1" source="DIP0iojW-KON-3yBLBze-27" target="DIP0iojW-KON-3yBLBze-1" edge="1">
          <mxGeometry width="50" height="50" relative="1" as="geometry">
            <mxPoint x="434.5615813482007" y="354.74545454545455" as="sourcePoint" />
            <mxPoint x="497.66345666497716" y="346.2" as="targetPoint" />
          </mxGeometry>
        </mxCell>
        <mxCell id="pkSuMTbyrZ5VXf1coNsi-1" value="" style="endArrow=classic;html=1;rounded=0;entryX=1;entryY=0.5;entryDx=0;entryDy=0;" parent="1" source="VWef2iSKnrzpSpEk25s3-16" target="DIP0iojW-KON-3yBLBze-26" edge="1">
          <mxGeometry width="50" height="50" relative="1" as="geometry">
            <mxPoint x="802.213988849468" y="249.63880339123617" as="sourcePoint" />
            <mxPoint x="733.6487604557844" y="209.28741464313694" as="targetPoint" />
            <Array as="points" />
          </mxGeometry>
        </mxCell>
        <mxCell id="pkSuMTbyrZ5VXf1coNsi-2" value="Queries" style="edgeLabel;html=1;align=center;verticalAlign=middle;resizable=0;points=[];" parent="pkSuMTbyrZ5VXf1coNsi-1" vertex="1" connectable="0">
          <mxGeometry x="-0.1034" y="3" relative="1" as="geometry">
            <mxPoint as="offset" />
          </mxGeometry>
        </mxCell>
        <mxCell id="pkSuMTbyrZ5VXf1coNsi-3" value="" style="endArrow=classic;html=1;rounded=0;exitX=0;exitY=0.5;exitDx=0;exitDy=0;entryX=1;entryY=0;entryDx=0;entryDy=0;" parent="1" source="DIP0iojW-KON-3yBLBze-26" target="DIP0iojW-KON-3yBLBze-1" edge="1">
          <mxGeometry width="50" height="50" relative="1" as="geometry">
            <mxPoint x="632.5311657374556" y="227.42942252441946" as="sourcePoint" />
            <mxPoint x="570" y="250" as="targetPoint" />
            <Array as="points" />
          </mxGeometry>
        </mxCell>
        <mxCell id="pkSuMTbyrZ5VXf1coNsi-4" value="Queries" style="edgeLabel;html=1;align=center;verticalAlign=middle;resizable=0;points=[];" parent="pkSuMTbyrZ5VXf1coNsi-3" vertex="1" connectable="0">
          <mxGeometry x="-0.1034" y="3" relative="1" as="geometry">
            <mxPoint as="offset" />
          </mxGeometry>
        </mxCell>
        <mxCell id="apbqnbbo_1BQk1kr7MA0-1" value="" style="endArrow=classic;html=1;rounded=0;exitX=1;exitY=0.5;exitDx=0;exitDy=0;" parent="1" source="DIP0iojW-KON-3yBLBze-1" target="DIP0iojW-KON-3yBLBze-26" edge="1">
          <mxGeometry width="50" height="50" relative="1" as="geometry">
            <mxPoint x="550" y="306.18" as="sourcePoint" />
            <mxPoint x="673" y="304.18" as="targetPoint" />
          </mxGeometry>
        </mxCell>
        <mxCell id="apbqnbbo_1BQk1kr7MA0-2" value="Results" style="edgeLabel;html=1;align=center;verticalAlign=middle;resizable=0;points=[];" parent="apbqnbbo_1BQk1kr7MA0-1" vertex="1" connectable="0">
          <mxGeometry x="0.347" relative="1" as="geometry">
            <mxPoint as="offset" />
          </mxGeometry>
        </mxCell>
        <mxCell id="apbqnbbo_1BQk1kr7MA0-4" value="" style="endArrow=classic;html=1;rounded=0;exitX=0.626;exitY=1.001;exitDx=0;exitDy=0;exitPerimeter=0;" parent="1" source="DIP0iojW-KON-3yBLBze-26" target="VWef2iSKnrzpSpEk25s3-16" edge="1">
          <mxGeometry width="50" height="50" relative="1" as="geometry">
            <mxPoint x="592" y="315" as="sourcePoint" />
            <mxPoint x="666" y="260" as="targetPoint" />
          </mxGeometry>
        </mxCell>
        <mxCell id="apbqnbbo_1BQk1kr7MA0-5" value="Results" style="edgeLabel;html=1;align=center;verticalAlign=middle;resizable=0;points=[];" parent="apbqnbbo_1BQk1kr7MA0-4" vertex="1" connectable="0">
          <mxGeometry x="0.347" relative="1" as="geometry">
            <mxPoint as="offset" />
          </mxGeometry>
        </mxCell>
        <mxCell id="apbqnbbo_1BQk1kr7MA0-6" value="" style="group" parent="1" vertex="1" connectable="0">
          <mxGeometry x="450" y="250.4909090909091" width="137.14" height="182.59909090909088" as="geometry" />
        </mxCell>
        <mxCell id="DIP0iojW-KON-3yBLBze-1" value="" style="shape=image;aspect=fixed;image=data:image/jpeg,/9j/4AAQSkZJRgABAQAAAQABAAD/2wCEAAMDAwMDAwQEBAQFBQUFBQcHBgYHBwsICQgJCAsRCwwLCwwLEQ8SDw4PEg8bFRMTFRsfGhkaHyYiIiYwLTA+PlQBAwMDAwMDBAQEBAUFBQUFBwcGBgcHCwgJCAkICxELDAsLDAsRDxIPDg8SDxsVExMVGx8aGRofJiIiJjAtMD4+VP/CABEIAMMA7AMBIgACEQEDEQH/xAAdAAACAgMBAQEAAAAAAAAAAAAAAQQFAgMGBwgJ/9oACAEBAAAAAP1PSGZJ4iZkkmsgeDTBpDGFFTapV1bNJrIDFpgCAyjcNXTJEjbOv9iBg8QYskga8+jzpsjbte22AyAxBgxAc9zdjN3yJGWa2SBZMMQYs1iM4bbYSpO/ewHjqN+TwayEJDjchaTJUk5ep29DfYrTFjzZ2LTBiCtp58+B8eeNVuqLD6n6s+m1phQ7KcDECCsgT53KfJvklNrjQOv+jvrUIsCJ0OYxZJRqbCXPleU/FvqUiFpfE8j+oo9MGBYWQwa53j7G4sp8nyf4UNd1VcxC6f8AU5ZYQq/O7GDoOE2W9zPsN/k/wp2FZ2urzfTM/TdZEKvizrPaC8yi7La6n2G/yb4el9kTeb5ev/UoZDgVNPH7a7VNwC2WtzYz5Hk/wt6jPnQN/mXNfqYssYVfWUsHP0idyvIp2dzZTpflHxB6t5h6lTeWet+b/psPXBgVNNGfSdny/IInXFnOn+V/CnV9rXzsPINX6lDjQYFPU6nZ+iU/AI321rPneY/CqfosXyWD0n6lGuHCrqaBi7P0ReaRAsLexm0vx75fhpiQNv0l9l6o0SDVVWgd53eVL5+PZZWk6XI1cpR1vT9nN1x40KvqoQjur8KLj4ZKn2UziK9yd1JVS/a4saBWwMBdJ2jaSgQNOdLLylZ7d0bLBRoUW2i4Sru1AEBkqrktsrdtZvvYNQX0p4gxZJA2GiiqIuci5vcgbDEGDEBkGIa8NuYgbDEGJpA2GIDYkDYYgw//xAAcAQACAgMBAQAAAAAAAAAAAAAABAMFAQIGBwj/2gAKAgIQAxAAAAAAANtGU4pYWgAAAAAAnVtqGFmKdVxdwAAAAAC1oYmYGYpcba7hjJkAAA2jfq1XOz8xtqON/nOy5fs51td4WAAM4nUzrKr7H80Zn1sEL/x73naNpFV/XcN47rmV3ULNyr94+SEbfSzzZ+C/TBhlMys2ZtKOwqELZC0cqvbvlWi6yJ+0j8N+kTDKdjUbxUfT3PNtopWSFs1We1fLlZe6PzzeI/SGdXEbGmnTpuknUsqaJmut8w+6/JxjWxrOt8Q+jpl3K+wp946boVLG75lhNSxTsZEnarOFnq+9ZUeq51I5aHq9JQkhkicrgimxvFLLFJCs1kXc13AAAwwnMvFOs6ZAAAAAAAAAAAAAP//EAE4QAAEDAgIECQYMAgUNAAAAAAEAAgMEEQUSBiExURATFCAiMkFxgTZCYXKRshUwMzRAUmJ0obHB0YLSBxcjJFA1Q0RTY2Rzg5LC4eLw/9oACAEBAAE/Af8AB5a+CPUOkfQnYlKeqxo/Fctqt49ibXTDaGlR1cb9R6J+kSSNibmcbBVFXJUXHVZu/dBiDEGIRrIo3ui1bRuTXBwuPopIAVTOaiT7I6oTWprE1qDVlWVZU27Cuz6JXy2aIx523uTWprEGoNQag1ZVlWRN1fRJncbM53ZfV4JrE1qa1BqDVZWCsrBWHBqWYLjGq4Px0rskbj6ExqaE0IBWTnNjbmeQ0bybKXHMFh+UxGkb/wA5qdpZo00/5Tp/aU3SnRx+zFKXxfb81BiWHVVuIq6eX1JWu/LmkLW3YmS5tR2/G1XyXeQmhNCaFXVsGHUc1VOSI4m3NtvcO9YppzjFY5zaZ3I4tzOv4u/ZVE89S8unlfK7e9xcfx4XIgKix7GcMtyWunjA83Nmb/0m4WienbsWq48Pr42sqJL8VKzqvI12I7Dw2RCcoZc4sdo+Mqeq3vTQmhBY6/D2YXOK+/Jn5WSEdmY2B8Cq7QvEo28fh7mV9O7Wx8bhmt3KppqmkdaoglhP22Fv5rM07CEUVnZe2YX3Ki0fx3E7clw6ocD57m8Wz2vssA0WodF66kq8XrIjXSPEdLTs1gOk6N95Pp2DmOCcFcsObcmkOAI7fiZJY4hd7rI12bqM8SjI6TrJoTQgtNvJqr9eH3wqPEK7D356WolhPblOo94UGnuNxjLMynqB9tlvdTtL8Mm+c6O0cns/VqdpHooTc6LU/tb/ACo6UaNR/J6K0niW/wAq/rBlpx/csHoKfwv7uVV2nWk9YCOWcQ09kLQz8dqwKSSbSTC5JHue91fBdzjcnpbzzCnJ6pndEjcfiKqt4o5I7F3adyu57ruJJ3piYE0Jo4NNvJqr9eH3xwlYnhdRhb445nMJkZm6PsUeHVc9HPWMYOJgNnm+vwHinIrR7ygwn79B73MKcnKm67u7n1tTxLcrT0nfgOBu1Rpqam8Gm3k1V+vD744MJw6mxIyxyVPFS6uKb9ZYhhlZhrrTM6N9Ug6pWmPzuk/4B95YX5J4r6zvyasNwXEMXd/d2Wjvrmd1fDf4LFcI5BWOp452TAAXfssT2d4WAwxR49hWZ/S5bDq/i5rk9Mk4p17XQrYe0lvemua4XBBHMJAFzsCllM0jnnt4G7VGmpqHBpt5NVfrw++FBDLUzxwxC75HWaL2VXQ1dC608RZudtae4qg0imgbxNW3lEJ1G/WA8dvisbnbjldTsoGyTFkGsZbdt+1YLWYbRYdW02IHL/bHPC5ty7UNVvBYppXVVDDFStFNT7NXWI9J7B6AqHBcaxjXBEQw7HvORru7etHxbSLCh/v8PvcwpycnqRRyviddhsqWrbPqOp+7hrn5KZ32tXC1MTU1N4NNvJqr9eH3wmlzXBzSQRsIWH6QVcpFLUQctD9VrdP9j4rG8DoaeFs8LxA572tbE46jmNtXd2qtfHotQNipY888x6U7hquP/tQWJU9PjmDnFWxmCaOMk5tjw3s/lKwjBcKiom1zY/hCXJmy3Gp31QDqB71jGk2LVpfBrpYxqdE24d/Edq0e8oMJ+/Qe9zCnJykT+BpLXAg2IVNMJog/28GJnoRj0nhCYUxNTUFpt5NVfrw++FTsjlnjZLJxbHOAc/6oUmLYbg8ZgwuNsj/OmdrH/t+Se+sxKp18ZUTP8T/4CiqzRM+DccjDonMDmO+U1bjZYlLiWkET+RQnkVO7K1l7OeR22/RUdZW4dOX07nxvGpwtt9DgU6twfSCC2Jx8kqGN1TN/T9isBigjx7Crvu7l0Nh/FzCnJykT+HDX2kczeL8GJjoRn7R5jCoymlNKC028mqv14ffHBhGF/CckmedsMUQBedV7ei/5qTGcOwxnJsLiaSSA6Z3b+rlpj8+g+7/9xWBVElLo7iE8ds8Upc2/c1MxDBdIAGVbRS1WwSdh/i/QrGaGfDKx1NJMJLAOBbudvG9aP+UOE/fofe5jk4p6eU48NEbVUfp1cFczPTu+zr5jCmFNKaU0rTbyZq/Xh98cFl5ze8LSuogqK2AwyMkAg1lpvtJKw+tpYtHcSp3yhssh6DO117fsnJy0f8ocJ+/Q+9zCU4p5T3I8NF86i7+C1wpojDK5ns7uYxyY5NKaVi2HRYvh81HI5zWyW6TdoINwsS0NxygJLIeVR/Xi2+Ldqka6F2SRrmO+q4ZT+PAUU8gbTZUtFW4g/JR001Qf9mwuHt2LRn+j7EYq2mr8SkEHEStkZAw5nEt2ZjsHhwXRKcU5ye5OPMw5t6i/1Wnhq6bj2auuNnMaUxya5NKBQcpIYKhuWWNjxucA781Lo1o/P1sOpr+hgb+SfoToy/8A0K3dI8fqpNEtEKZ8TZKQZpXWY0vkde3iqPANGmxxzU2HUmVzQWP4sG4Pb0lE+C74o7AxWzNGq1xcK6ui5FycU9ye7m4fDxcWY7X/AJcypomT9IdF+9S080PWbq39nC1yY5NcsyxmWSMsfynJGyF5dG2oEDz9sE9a246k+aaSHE61lZUt5PZ0LL2aAImvs5vpvrU1a8R1VQa17KuKctips/RNj0GcX52cdqfjUuHSvgmHGMpZHPqpTrLYX/Jkbzr/AAUMMxrcKkqZZePdT1T3tzmwJynLbcL2WH1DXUcYnxB9IIKOnMAbJkuDHfjPt69VlR19U+MF8j2RTR0XK6wHpMzRD2X7Xdi5fiFzKZ2tm5Vk4s1Wrr24viQ3d27e1F2solFyc5Ocib8ykonPIfILN7G7+e+lgk2xhHDoDszDxXwYz/WOQw9rf84fYjeN5adoQenNiltnY19jcZgDZWYQ4ZR0turaskRkEhYwvAsHWFx4ohhvdo6Wo6tqOUkG2sdvenRQOyXjYcnUu0dHu3LLGGluRtiLEW2riIy7jhEzOBbNlGa3ei5F6c9dOR2VouUcNcR8pr7kcNn+sxfB1RvZ7U3DD50nsCipIIdYbc7z8ZUUwmF9jt6c2SE2eLIPQes6zrMsyY10h9G9AW1KSAP1jUU6kn7C1NoHnrv9ijhZCLNH0J7GvFnC4UlA3bGbegp1PUR+ZfuWa21cYml7+qCVHSuOuTV6EGhosPpRaDtC4qMeY32f4f8A/8QAJRABAAIBAwQCAwEBAAAAAAAAAQARIRAxQSBRYXGBkaHB8LHR/9oACAEBAAE/EMVCs64hUamMTFTExpiYuNRqYrTGhUamLjWmNCoVGrnEOgjpxElEuNv3NjHzagn/ADxr8bUUBW77fcu4zjoI6PQQjOIdBGLax+fBEg3MF38rmXNVMEvNSUfJfqA9icdBHR6CEZiuYc79BGCtBusuRZj/AGPllvE2MSk2nghntN0zjwtncgiE6Co15mL5jXnoIR3lNQHPSm+MvV/2bOJtTDtPDo+Gb9p6Ri+HHQDEZTcR6AYDEzAK5gFO+rKnc9TwMCVViY7qeGeGBARuiSMsWiiJcMOeyGQNkxfMQ89AHmAeYhfM4hz0OPuKokGjEHGIcB2jwJ3ED5ZurG4onwLKA/G3+Exfx39cQDjsJfSjg2dEGJPDLW2mYSwn4vSQjvLagudWJsdhK6gYgVcTMeta4A5U0QMK7VqPLz8IqSbtXymNBgCKzK5gtF96jScOdfcQxMDAOs/jFEw6OYh0gjcSw/cd+gWCxcziGrDYTsTAMNEpjGIVr4OTA3MxNAK8rU/DKhA0n5sEQNr0joYWtEXAXYBtfgzHRsN8okYnuDsYKpDVg1Es1ihG6myUB1IRnENKyL7HL6Jepq4/4kphHwVobE2OnK/sNiv8Awfyvlv2CZVJ3Rz+2fQAmVsqcv8A3jXdvRf4T3bw9+M/ziyoHXV3sXUhn7QXLPVvnUhGViBhhNQcbh/2xbaN02wyipsTASsQ65XCwt4JU4TWoZUZDZI/IBJLYvuBS5tm1n9rslSoEMMEsF3itAgRMysRzUFv+SVBAYWWgSpTUOmVdGBQIndzvXYbm/Xpdc3fh8M/o98UNFmzgofHJ+IRxfAKDLBYNVorPeKlQIkDAwVaFJiJaQ8MQE8cjZAgRMxelAq9gnNYwdg2NGQozGhmJitOQpTGUXvlh+9OLI8OJhvxgvuYHxC42BYc1eNBALsuUdFOeYBaigj1SiAdXLep2xv2CojW4L7DqVKRxmdKJZqvw+yGVhGeD5IVHeVgaUH07w0pcYRmJTEriYrTkqFhRSJsiRrYqkqPI4PP2hsXxrAnche+EUbuNvdvz8ITYcLbE5cj+mOwMAU0204O92Ie2fi09L1gmH9GExoVFRGEdylMrokZFj2ZyOcDskajUuX+iGm7SW04RYIrNOWG5p3Zux5pKzh720r6jJ3Bbx/gfAQmytYBcbxpMJkiqYIQS3c6HHCLXK3hTfBPpi26Ga3RzLWZU+NO9N9SOOPDFMh0Iqe1T2aN4w/ZDoBmxNqPDryFzDdDXwB3UozSZRXSl5PLjRpExQiyzcIkVgJBfCwxdtLKjcOx3Ex/rw6FoLGlm0I3lH7Gi190H4h0HfxNibE2or0SbQwjsM/DAAhoyIgpzTE1RsvBJX2uDFaP5/ZquJv6mkydCC/Bf6NEIJYjcdBgyu62nxPiCjtNq4TNmLjEBmjKKU2d6SUPHbLTy4Pq4tG91/RRhnbMwlsw2wHdamRF7APe18sMxgk/vhni0vxHxj8Snjmb2NB2fE+Ieop1wj5cEfUrEG08r7nJERRERpHSpQ6G1Layy/lmSXBPhn1aKLfbrH3WPXHK7anOxbgWDl2I4DaSgsCFlqmCOmNVtkYgjoKO8pvLqCqsqVNotLWb1wiTFQ5iCuD0fcQz+HMWQ3uVVvKazDxmEn8LeEIgiU4xQf1Tpe+nm+B24gvg2DB8rCXfmxInJqKi2240fCmLpLzg1YfwxDzFEIyQ8r7gVHO4CobTlvxllh3UqoFNqq5gtcqlWSedmPfX01WVccsWUMrz4hGcQ50SyNLdeTD+Jvj12/2NlgfBOcfhFiNUYTzNkdZVHJd0wQFFZRVys94oaZLE8G4Ivc0LQ0Nh7hLVCCCCw3A+Z3n+ww8z8JWg1AaFVSclQ2MExHYUup5ZVzNzMMlJwQjQxLHCD2T5SHOHyf1G1V6/Yxw+Q7AhHecQ6CMdpVjSY4Phl5q/D6ZXWZ5YB5lF3lYyarZvAEBQSyR/ExTkHtIrYB2Nv2zFXe7uvt0eghGcQ6COnESl7CRSpfsJvyPfOXdWHziexEAynBKpKdm8KgAcdBHR6CEZTUBz0BEZTiU10bCPsuCLAfWUGxEZTXQDEZTcR6AYDEzOIdBHTjp5jGcdBHR6CEZ//8QAOREAAgEDAgMEBQoHAQAAAAAAAQIDAAQREjEFIUEQIjJhBhMUIFEVMDVCcXJ0gbGyIzRAUmKRodH/2gAIAQIBAT8A9xEdzhVJoWU+MnA/Ont5k3GR5fOQQmZ8bKNzQKRDSgwBTS0ZakVX5jf5uLEMIHU8zTyZ60XJ61rNaqJyaAJrBG499BqdR51I29YaR1VVLMxAUDck1Z+g19Moa5njgyPCBrYfoKT0BsgO/dzE+QAqT0BtCP4d5Kv3lDf+VxP0S4hw+J5kZJ40BLFeTADrg0DStUkeBqXb3QCTgUkMikMRipDvXDohccRtItTJrnjXUu4ywGRQHpDactNvfIOQYkwyfnutfKXEl5NwifP+MsZH618ocVbwcJcffnRf0zV9Bxu9tLj2iWG2hEMhZIsu7ADOCzcgOxTUZBGDtTLpYjtjRpHCruait0gTlzJ3NTGn3rg30xYfiov3Cp547aJpJM6VxnAzTXmu6s0hkVoplkJI5+EcqivgDdmYoiQy6QduWAaup4peHzsjZD28hHLHIqe2PpU0cjPlVJHbw+MYZyPIU21TU+9cG+mOH/iov3CryW8gb1kSRyRBe+pOlh5gnlQmsHlhubKJvaJGdVjPdTOO8T9nlXrbBDJdzxSNMZtLQnmqOB06Uxu3sbxp1iRTA5RE5kYU7ntj6VCNqntkmXbDdDRBUkHcVY/y6/aeyUVIK4N9MWH4qL9wriMFuyia6kf1MY5xjwk+YFSOb6e3t3tfUQMrmI7SAoNxjw1HMbUXNv7LrtYpNDFeZHIHLDrvvXs8UXDrl4JXMUlu7Iuche6duwVGNqhHZfKBPkfWUGuHyjDRnfcdkigipF3qwlS14jaTSZ0RTxu2BnkrZNWt9ZXyB7eeOUeR/UbiprZZLmCcsQYg4A+OqobZIZJ3Uk+uk1ny5YrjHErCys51mnjV2hdVTdiWGBgCgKQVEu1IMChvV+QZgPgopHaNgynBFQ3UUo3APwo8xUiZp4zUdk7IkiyBc7H4HUBio340gxBfT520iRhsOnx3qV+ITp3+IXMpHiy7sD3ivIflTcJkDkesTZevUilQmkjqNAAOyWVIV1MakcyOWPXtWaVPC7Cvarj+81FIk6DmA3UU0bUYz8TQjIIIJFO+g4BOetRvE25CmnuYkXCd40t5cL9Yf6o3twR4gPsFMzOcsST73PoaS6lXc6h50LxDun/ae5ZhgDT/AE//xAA9EQACAQMDAQUFAwgLAAAAAAABAgMABBEFITESBhBBYXETFCIyUSB0sgcwNkJigaGxFRcjQENScnOR0eH/2gAIAQMBAT8A+xJJHEMuwUedHUrbw6j6LUd5BJwcev5y7uRbR55Y/KKxLO/W5yTSQClgAqFmTYnI/NzE3FwzeA2X0FRxcUsWBQj8qKClGBRdR40GB4P25SVjYjwFRR+VFo4YmkdgiIpZmPAA3JNaj+VfSbeRksLWW76Tj2jH2SH02Jr+tjU3b4NPtlHmzNVv+VC+JHtNPgYfsuV/nmtI7c6XqkyQSI9tK5AUNupJ4GRXSDTqBuKimyelufA/ZJCjJOBUtzE6sqnJNRLxWuTm00PUZwiSGK0mfocZVulScEfQ0D2Ovz1lrzTJDyoQXMQ9OHFR6PoTbx9orUj9uCZD+E1Dpmhp8+uxN/tW8rfzC1pdzoFheWxtYZ7uYzIFknwiIScZVEJJPc42qXY5qNutAe+WVIY2d+BU11LcyZY4XwUVBwKiFdqf0a1f7hcfgNWttNeTpBF0l3z0gsFBI8MmodNMdjqMlxG8c9s0IUHb5yc5H7qGnFVsRAryPPB1sOd8kVYxPFqFsjjDLcxgjnhh3EZqQc1BNGiBWYA5oEEZHdq02WSIcAdRpeat+BUVdqf0a1f7hcfgNabBpt0DDcSywzMwEcgXqT0IG9e76tFDdWWqXCe6QLG8ko/tJMZyqg87+fFRxam4hsoJoktxbhknAId4idsjnx4FW4tF1CySBpXK3EfW77ZPUOF7ialPNXJ2q1vJbZucp4rSOHVWHBGRWp597f0X+VDmrdtqibiu1Bz2a1f7hcfgNaRdXkTmCxhi95mOFmPzqoG+Cdh5moIk0y1u7yK+F1dRNGs6jLQsJScq2fn45o2y3ful176Y7yeLrAc9KncjCHgeQqG4mm1KzWeNRKlxGHbGGb4hz3OdqlNTt3aW5a26f8rEVq0PxLKP9J7oXwRULitYt5r/AEXULWEAyT2k0aAnA6mUgVf6TqelSmO8tZoGB/XXAPoeDVvePFZ3NqEBW4aJifp7PP8A3XvclyltGwAFvF7MY+mc712e0nUr+9tngtpHRJUZnIwoCnJyTRNSOMVNIACakbqPdpSkW7H6uakjWVGRhkEVc2U1uScdS/UUCQahlqOXOKm1eJZJYXhZ+jlTjdeksTv6YqVey0rE3Ol2nScHrMKNyTjOBkHYk/QVAukWkp6dIsoRk+zAiRW2RX3YgAHeou0luYgTC43fACn5VOKaSpJed6mlzXNQwSTuFQZPj5VDEsMaoOAO97aCT5o1P7qFjaj/AAxUsUls/BK52NJIh+LpXJ5OOaDrv8K7nJ25JGM0XUg5UHPORUcQmG6jpHH/AJUsU67BS3pSWc8x+P4FptNtG/VP/NLptopz0k+ppI0jXpRQo8vtEAjBFPYQOcqCh8q/o9wdpf4VHZKhy7Fv4CgABgf3b//Z;imageBorder=default;" parent="apbqnbbo_1BQk1kr7MA0-6" vertex="1">
          <mxGeometry x="0.0037050177394348793" width="132.37090724784593" height="109.37658388241256" as="geometry" />
        </mxCell>
        <mxCell id="DIP0iojW-KON-3yBLBze-31" value="&lt;span style=&quot;text-wrap: nowrap;&quot;&gt;Database designed for&amp;nbsp;&lt;/span&gt;&lt;div&gt;&lt;span style=&quot;text-wrap: nowrap;&quot;&gt;analytical queries hosted&amp;nbsp;&lt;/span&gt;&lt;/div&gt;&lt;div&gt;&lt;span style=&quot;text-wrap: nowrap;&quot;&gt;in our instance of AWS&lt;/span&gt;&lt;/div&gt;" style="text;strokeColor=none;align=center;fillColor=none;html=1;verticalAlign=middle;whiteSpace=wrap;rounded=0;" parent="apbqnbbo_1BQk1kr7MA0-6" vertex="1">
          <mxGeometry y="114.77909090909088" width="137.14" height="67.82" as="geometry" />
        </mxCell>
      </root>
    </mxGraphModel>
  </diagram>
</mxfile>
